<svg xmlns="http://www.w3.org/2000/svg" viewBox="598 -476.1 1792 1792" enable-background="new 598 -476.1 1792 1792"><path fill="#7dc621" d="M1811 121.9l-408 407-226-226c-123-116.1-298.5 67.9-181 181l362 362c12.7 12.7 27.7 19 45 19 18 0 33.3-6.3 46-19l543-543c118.5-113.1-71.5-290.6-181-181zm451 298c0 139.3-34.3 267.8-103 385.5s-161.8 210.8-279.5 279.5-246.2 103-385.5 103-267.8-34.3-385.5-103c-117.7-68.7-210.8-161.8-279.5-279.5s-103-246.2-103-385.5 34.3-267.8 103-385.5 161.8-210.8 279.5-279.5c117.7-68.7 246.2-103 385.5-103s267.8 34.3 385.5 103 210.8 161.8 279.5 279.5 103 246.2 103 385.5z"/></svg>