<svg >

    <symbol id="svg-fb1" viewBox="0 0 1792 1792" ><path d="M1343 12v264h-157q-86 0-116 36t-30 108v189h293l-39 296h-254v759h-306v-759h-255v-296h255v-218q0-186 104-288.5t277-102.5q147 0 228 12z"/></symbol>
    <symbol id="svg-fb2" viewBox="0 0 1792 1792" ><path d="M1343 12v264h-157q-86 0-116 36t-30 108v189h293l-39 296h-254v759h-306v-759h-255v-296h255v-218q0-186 104-288.5t277-102.5q147 0 228 12z"/></symbol>
    <symbol id="svg-vk" viewBox="0 0 1792 1792" ><path d="M1853 520q23 64-150 294-24 32-65 85-78 100-90 131-17 41 14 81 17 21 81 82h1l1 1 1 1 2 2q141 131 191 221 3 5 6.5 12.5t7 26.5-.5 34-25 27.5-59 12.5l-256 4q-24 5-56-5t-52-22l-20-12q-30-21-70-64t-68.5-77.5-61-58-56.5-15.5q-3 1-8 3.5t-17 14.5-21.5 29.5-17 52-6.5 77.5q0 15-3.5 27.5t-7.5 18.5l-4 5q-18 19-53 22h-115q-71 4-146-16.5t-131.5-53-103-66-70.5-57.5l-25-24q-10-10-27.5-30t-71.5-91-106-151-122.5-211-130.5-272q-6-16-6-27t3-16l4-6q15-19 57-19l274-2q12 2 23 6.5t16 8.5l5 3q16 11 24 32 20 50 46 103.5t41 81.5l16 29q29 60 56 104t48.5 68.5 41.5 38.5 34 14 27-5q2-1 5-5t12-22 13.5-47 9.5-81 0-125q-2-40-9-73t-14-46l-6-12q-25-34-85-43-13-2 5-24 17-19 38-30 53-26 239-24 82 1 135 13 20 5 33.5 13.5t20.5 24 10.5 32 3.5 45.5-1 55-2.5 70.5-1.5 82.5q0 11-1 42t-.5 48 3.5 40.5 11.5 39 22.5 24.5q8 2 17 4t26-11 38-34.5 52-67 68-107.5q60-104 107-225 4-10 10-17.5t11-10.5l4-3 5-2.5 13-3 20-.5 288-2q39-5 64 2.5t31 16.5z"/></symbol>
    <symbol id="svg-tw" viewBox="0 0 1792 1792" ><path d="M1684 408q-67 98-162 167 1 14 1 42 0 130-38 259.5t-115.5 248.5-184.5 210.5-258 146-323 54.5q-271 0-496-145 35 4 78 4 225 0 401-138-105-2-188-64.5t-114-159.5q33 5 61 5 43 0 85-11-112-23-185.5-111.5t-73.5-205.5v-4q68 38 146 41-66-44-105-115t-39-154q0-88 44-163 121 149 294.5 238.5t371.5 99.5q-8-38-8-74 0-134 94.5-228.5t228.5-94.5q140 0 236 102 109-21 205-78-37 115-142 178 93-10 186-50z"/></symbol>
    <symbol id="svg-li" viewBox="0 0 1792 1792" ><path d="M477 625v991h-330v-991h330zm21-306q1 73-50.5 122t-135.5 49h-2q-82 0-132-49t-50-122q0-74 51.5-122.5t134.5-48.5 133 48.5 51 122.5zm1166 729v568h-329v-530q0-105-40.5-164.5t-126.5-59.5q-63 0-105.5 34.5t-63.5 85.5q-11 30-11 81v553h-329q2-399 2-647t-1-296l-1-48h329v144h-2q20-32 41-56t56.5-52 87-43.5 114.5-15.5q171 0 275 113.5t104 332.5z"/></symbol>
    <symbol id="svg-gplus" viewBox="0 0 1792 1792" ><path d="M1181 913q0 208-87 370.5t-248 254-369 91.5q-149 0-285-58t-234-156-156-234-58-285 58-285 156-234 234-156 285-58q286 0 491 192l-199 191q-117-113-292-113-123 0-227.5 62t-165.5 168.5-61 232.5 61 232.5 165.5 168.5 227.5 62q83 0 152.5-23t114.5-57.5 78.5-78.5 49-83 21.5-74h-416v-252h692q12 63 12 122zm867-122v210h-209v209h-210v-209h-209v-210h209v-209h210v209h209z"/></symbol>

</svg>