<svg xmlns="http://www.w3.org/2000/svg" viewBox="209 356.9 77 24" enable-background="new 209 356.9 77 24"><path d="M209 356.9h77v24h-77v-24z" fill="#2F6AAF"/><path d="M272.8 359.9c1.3 0 2.6.3 3.7.8.2.1.4.2.5.3l-.8.7-1.2-1.2-2 1.7-1.2-1.3-3.6 3.3 2.3 2.6-.9.8 2.3 2.6-.9.8 3.3 3.7 1.9-1.8 1.7 1.9c-.3.3-.7.5-1.1.7-1.2.7-2.6 1.1-4.1 1.1-4.6 0-8.4-3.8-8.4-8.4.1-4.5 3.9-8.3 8.5-8.3zm-1.5 7.9l2-1.8 1.8 2-2 1.8-1.8-2zm1.4 3.4l2-1.8 1.8 2-2 1.8-1.8-2zm-2.8-6.9l2-1.8 1.8 2-2 1.8-1.8-2zm3.6-.9l1.5-1.3 1.4 1.5-1.5 1.4-1.4-1.6zm2.7 6.2l1.5-1.4 1.4 1.5-1.5 1.3-1.4-1.4zm1.3 3l1.5-1.3 1.4 1.5-1.5 1.4-1.4-1.6zm.6-7l1-.9.9 1-1 .9-.9-1zm-1.3-2.9l1-.9.9 1-1 .9-.9-1zm2.6 5.9l1-.9.9 1-1 .9-.9-1zm-4.5-2.2l1.5-1.3 1.3 1.5-1.5 1.3-1.3-1.5zM218 366.8l-1.3 4.8h-1l-1.6-6.8h1.1l1.1 5.1h.1l1.3-5.1h.8l1.3 5.1h.1l1-5.1h1.1l-1.6 6.8h-1l-1.4-4.8zm8.2 3.8v.7c-.4.3-1 .4-1.7.4-1.6 0-2.3-1-2.3-2.5s.7-2.5 2.2-2.5c1.2 0 1.9.8 1.9 2.3v.4h-3.1c0 1.2.5 1.7 1.5 1.7.5 0 .9-.2 1.5-.5zm-3-1.8h2.2c-.1-1-.5-1.4-1.1-1.4-.6 0-1 .4-1.1 1.4zm5-1.7c.3-.2.8-.4 1.3-.4 1.2 0 1.8.8 1.8 2.4 0 1.8-.9 2.7-2.3 2.7-.5 0-1.3-.2-1.9-.5v-6.7l1-.2.1 2.7zm0 3.8c.3.1.6.2.9.2.7 0 1.3-.4 1.3-2 0-1.2-.4-1.6-1.1-1.6-.4 0-.7.1-1.1.3v3.1zm7.4-.7l2.1-5.4h1.2v6.8h-1v-4.9h-.1l-1.9 4.9h-.6l-2-4.8h-.1v4.8h-.9v-6.8h1.2l2.1 5.4zm4.4-1c0-1.7.9-2.5 2.2-2.5 1.3 0 2.2.8 2.2 2.5 0 1.6-.9 2.5-2.2 2.5-1.3 0-2.2-.8-2.2-2.5zm3.4 0c0-1.3-.5-1.8-1.2-1.8-.6 0-1.2.5-1.2 1.8s.5 1.8 1.2 1.8c.7.1 1.2-.5 1.2-1.8zm1.9-1.8c.4-.3 1.3-.7 2.4-.7 1.2 0 1.6.5 1.6 1.4v3.5h-1v-3.3c0-.8-.4-.9-.9-.9-.4 0-.9.2-1.2.3v3.8h-1l.1-4.1zm8.9 3.2v.7c-.4.3-1 .4-1.7.4-1.6 0-2.3-1-2.3-2.5s.7-2.5 2.2-2.5c1.2 0 1.9.8 1.9 2.3v.4h-3.1c0 1.2.5 1.7 1.5 1.7.5 0 .9-.2 1.5-.5zm-3-1.8h2.2c-.1-1-.5-1.4-1.1-1.4-.5 0-1 .4-1.1 1.4zm6.8-1.9h1l-1.7 4.8c-.5 1.3-1.1 2-2.2 2v-.8c.6 0 1.1-.5 1.3-1.2l-1.8-4.8h1.1l1.2 3.5h.1l1-3.5z" fill="#fff"/></svg>