<svg xmlns="http://www.w3.org/2000/svg" width="143" height="37" viewBox="0 0 143 37">
  <g fill="none" fill-rule="evenodd" transform="translate(1)">
    <path fill="#605F61" d="M41.1,29.4 L41.1,7.8 L46.1,7.8 C47.4,7.8 48.5,7.9 49.4,8.2 C50.3,8.5 51,8.9 51.5,9.4 C52,10 52.4,10.7 52.6,11.5 C52.8,12.3 52.9,13.4 52.9,14.6 L52.9,22.4 C52.9,23.7 52.8,24.7 52.6,25.6 C52.4,26.4 52,27.2 51.5,27.7 C51,28.3 50.3,28.7 49.4,29 C48.5,29.3 47.5,29.4 46.2,29.4 L41.1,29.4 L41.1,29.4 Z M45.5,26.1 L46.2,26.1 C46.5,26.1 46.8,26.1 47.1,26 C47.3,26 47.5,25.9 47.7,25.7 C47.9,25.6 48,25.5 48.1,25.3 C48.2,25.2 48.3,25 48.3,24.7 C48.3,24.4 48.4,24.2 48.4,24 L48.4,13.8 C48.4,13.3 48.4,12.8 48.3,12.5 C48.3,12.2 48.2,11.9 48,11.7 C47.9,11.5 47.6,11.3 47.4,11.2 C47.1,11.1 46.7,11.1 46.2,11.1 L45.5,11.1 L45.5,26.1 L45.5,26.1 Z M58,29.4 L54.4,7.8 L58.2,7.8 L60.4,22.4 L62.4,7.8 L66.4,7.8 L62.7,29.4 L58,29.4 L58,29.4 Z M66.8,29.4 L70.6,7.8 L75.6,7.8 L79.4,29.4 L75.3,29.4 L74.6,24.8 L71.7,24.8 L71,29.4 L66.8,29.4 L66.8,29.4 Z M72.1,22 L74.2,22 L73.1,13.6 L72.1,22 L72.1,22 Z M81.4,29.4 L81.4,7.8 L84.5,7.8 L88.6,18.2 L88.6,7.8 L92.3,7.8 L92.3,29.4 L89.3,29.4 L85.2,18.2 L85.2,29.4 L81.4,29.4 L81.4,29.4 Z M101.1,29.7 C100,29.7 99,29.5 98.2,29.2 C97.4,28.9 96.8,28.4 96.3,27.7 C95.8,27 95.5,26.3 95.3,25.4 C95.1,24.5 95,23.6 95,22.4 L95,14.7 C95,13.5 95.1,12.5 95.3,11.6 C95.5,10.7 95.8,10 96.3,9.3 C96.8,8.7 97.4,8.2 98.2,7.8 C99,7.5 99.9,7.3 101.1,7.3 C102.2,7.3 103.1,7.4 103.9,7.7 C104.7,8 105.3,8.4 105.7,9 C106.1,9.6 106.4,10.2 106.6,11 C106.8,11.7 106.9,12.6 106.9,13.5 L106.9,15.7 L102.6,15.7 L102.6,12.7 C102.6,12.5 102.6,12.3 102.5,12 C102.5,11.7 102.4,11.5 102.3,11.4 C102.2,11.3 102.1,11.1 101.9,11 C101.7,10.9 101.5,10.8 101.2,10.8 C100.9,10.8 100.7,10.9 100.5,11 C100.3,11.1 100.2,11.2 100.1,11.4 C100,11.6 99.9,11.8 99.9,12 L99.8,12.7 L99.8,23.7 C99.8,24.6 99.9,25.2 100.1,25.7 C100.3,26.2 100.7,26.4 101.3,26.4 C101.6,26.4 101.8,26.3 102,26.2 C102.2,26.1 102.3,26 102.4,25.8 C102.5,25.7 102.6,25.4 102.6,25.2 C102.7,24.9 102.7,24.7 102.7,24.5 L102.7,21.4 L107,21.4 L107,23.3 C107,24.1 106.9,24.8 106.8,25.4 C106.7,26 106.5,26.6 106.2,27.2 C105.9,27.8 105.6,28.2 105.1,28.6 C104.7,29 104.1,29.3 103.4,29.5 C102.7,29.6 101.9,29.7 101.1,29.7 L101.1,29.7 Z M109.2,29.4 L109.2,7.8 L118.2,7.8 L118.2,11.1 L113.6,11.1 L113.6,16.4 L117.1,16.4 L117.1,19.7 L113.6,19.7 L113.6,26.1 L118.2,26.1 L118.2,29.3 L109.2,29.3 L109.2,29.4 L109.2,29.4 Z M122.2,29.4 L122.2,11.3 L119.1,11.3 L119.1,7.8 L129.7,7.8 L129.7,11.3 L126.6,11.3 L126.6,29.4 L122.2,29.4 L122.2,29.4 Z M136.7,29.7 C134.8,29.7 133.4,29.2 132.4,28.1 C131.5,27 131,25.3 130.9,22.9 L134.7,22.3 C134.7,23.7 134.9,24.6 135.2,25.3 C135.5,25.9 135.9,26.2 136.5,26.2 C137.3,26.2 137.6,25.7 137.6,24.6 C137.6,24 137.5,23.5 137.3,23 C137.1,22.5 136.9,22.1 136.6,21.7 C136.3,21.4 135.9,20.9 135.4,20.5 L133.6,18.8 L132.5,17.7 C132.2,17.4 131.9,17 131.7,16.5 C131.4,16 131.2,15.5 131.1,15 C131,14.4 130.9,13.8 130.9,13.2 C130.9,11.4 131.4,10 132.4,9 C133.4,8 134.8,7.5 136.5,7.5 C137.1,7.5 137.6,7.6 138.1,7.7 C138.6,7.8 139,8 139.3,8.2 C139.6,8.4 139.9,8.7 140.2,9.1 C140.5,9.4 140.7,9.8 140.8,10.1 C140.9,10.4 141.1,10.8 141.2,11.3 C141.3,11.7 141.4,12.1 141.4,12.5 L141.5,13.6 L137.7,14.1 L137.7,13.2 C137.7,13 137.7,12.7 137.6,12.4 C137.6,12.1 137.5,11.9 137.5,11.7 L137.3,11.2 C137.2,11.1 137.1,11 136.9,10.9 C136.7,10.8 136.6,10.8 136.4,10.8 C136,10.8 135.7,11 135.5,11.3 C135.3,11.6 135.2,12 135.2,12.5 C135.2,12.9 135.2,13.3 135.3,13.6 C135.4,13.9 135.6,14.3 135.8,14.6 C136,14.9 136.2,15.1 136.4,15.3 C136.5,15.5 136.8,15.7 137.1,16 L138.8,17.6 C139.3,18.1 139.7,18.5 140,18.9 C140.3,19.3 140.7,19.8 141,20.3 C141.3,20.8 141.5,21.4 141.7,22 C141.9,22.6 141.9,23.3 141.9,24 C141.9,25.6 141.4,26.9 140.4,27.9 C139.6,29.2 138.3,29.7 136.7,29.7 L136.7,29.7 Z"/>
    <path fill="#528411" d="M12.7,23.2 C12.3,22.9 12.1,22.8 11.7,22.6 C9.7,21.7 7.5,19.9 6.2,21.5 L4.8,25 L-8.8817842e-16,36.9 L7.1,36.9 L12.3,24.5 C12.4,24.2 12.8,23.3 12.7,23.2 L12.7,23.2 Z"/>
    <polygon fill="#7EC624" points="23.2 22.3 29.6 36.9 36.3 36.9 29.2 18.8"/>
    <path fill="#7EC722" d="M24.8,8.5 C23.6,6.1 22.3,3.8 20.4,1.9 C18.9,0.4 17.6,0.2 16.2,1.8 C14.6,3.6 11.7,9.1 10.9,11 C8.2,16.9 7.6,17.7 5.4,23.4 C7.2,21.7 8.6,21.6 10.4,21.8 C10.7,21.8 12.9,22.3 13.2,22.1 C13.5,22 13.8,21.1 13.9,20.9 C15,18.2 17.7,12 18.1,11.3 C19.3,13.9 20.3,16.3 21.6,19 C23.6,17.7 25.6,16.2 27.6,14.8 C26.8,12.7 25.8,10.6 24.8,8.5 L24.8,8.5 Z"/>
    <polygon fill="#68A61D" points="24.6 25.6 30.6 22.4 29.4 19.3 23.6 23.3"/>
    <path fill="#7FAF49" d="M13.6,21.8 C12.6,21.7 9.4,21.1 7.5,22 C6.2,22.6 5.6,23.1 5.5,23.3 C6.3,22.8 6.8,22.4 8.1,22.3 C9.2,22.2 10.3,22.7 10.8,22.9 C11.6,23.4 12.5,24.1 12.5,24.1 L16.8,27.6 C16.9,27.7 17,27.7 17.1,27.6 L37.8,13.5 L37.8,13.2 L34.5,10.1 L17.3,22.3 C17.1,22.4 16.9,22.5 16.7,22.4 L13.6,21.8 L13.6,21.8 Z"/>
    <path fill="#B6DA52" d="M13.6,21.5 C12.6,21.4 9.4,20.8 7.5,21.7 C6.1,22.4 5.4,23.3 5.4,23.3 C5.4,23.3 6.5,22.2 8.1,22 C9.1,21.8 10.3,22.3 10.8,22.6 C11.6,23.1 12.5,23.8 12.5,23.8 L16.8,27.3 C16.9,27.4 17,27.4 17.1,27.3 L37.8,13.2 L34.5,9.8 L17.3,22 C17.1,22.1 16.9,22.2 16.7,22.1 C16,21.9 14.3,21.6 13.6,21.5 L13.6,21.5 Z"/>
  </g>
</svg>
