<svg xmlns="http://www.w3.org/2000/svg" viewBox="-224 402.7 37.8 36.2" enable-background="new -224 402.7 37.8 36.2"><path d="M-186.2 415.2l-3.3-3.4-6.9 4.9c-.8-2.1-1.8-4.1-2.8-6.2-1.2-2.4-2.5-4.7-4.4-6.6-1.5-1.5-2.8-1.7-4.2-.1-1.6 1.8-4.5 7.3-5.3 9.2-2.7 5.8-3.3 6.7-5.4 12.2l-.1.1.1-.1c0 .1 0 .1-.1.2l.1-.1-.7 1.7-4.8 11.9h7.1l5.2-12.4.3-.7 4.2 3.5c.1.1.2.1.3 0l6.4-4.3 6.1 13.9h6.7l-7-17.9 8.5-5.8zm-21.1 8.9c-.7-.2-2.3-.5-3.1-.6.1-.3.2-.5.3-.6 1.1-2.7 3.8-8.9 4.2-9.6 1.2 2.6 2.2 5 3.5 7.7l-4.3 3c-.2.1-.4.2-.6.1z" fill="#4D7E3A"/></svg>