<?xml version="1.0" encoding="UTF-8"?>
<svg width="148px" height="37px" viewBox="0 0 148 37" version="1.1" xmlns="http://www.w3.org/2000/svg" xmlns:xlink="http://www.w3.org/1999/xlink">
    <!-- Generator: Sketch 40.1 (33804) - http://www.bohemiancoding.com/sketch -->
    <title>Untitled 2</title>
    <desc>Created with Sketch.</desc>
    <defs></defs>
    <g id="Page-1" stroke="none" stroke-width="1" fill="none" fill-rule="evenodd">
        <g id="logo" transform="translate(1.000000, 0.000000)">
            <g id="Group" transform="translate(46.000000, 7.000000)" fill="#605F61">
                <path d="M0.1,22.4 L0.1,0.8 L5.1,0.8 C6.4,0.8 7.5,0.9 8.4,1.2 C9.3,1.5 10,1.9 10.5,2.4 C11,3 11.4,3.7 11.6,4.5 C11.8,5.3 11.9,6.4 11.9,7.6 L11.9,15.4 C11.9,16.7 11.8,17.7 11.6,18.6 C11.4,19.4 11,20.2 10.5,20.7 C10,21.3 9.3,21.7 8.4,22 C7.5,22.3 6.5,22.4 5.2,22.4 L0.1,22.4 L0.1,22.4 Z M4.5,19.1 L5.2,19.1 C5.5,19.1 5.8,19.1 6.1,19 C6.3,19 6.5,18.9 6.7,18.7 C6.9,18.6 7,18.5 7.1,18.3 C7.2,18.2 7.3,18 7.3,17.7 C7.3,17.4 7.4,17.2 7.4,17 L7.4,16.1 L7.4,6.8 C7.4,6.3 7.4,5.8 7.3,5.5 C7.3,5.2 7.2,4.9 7,4.7 C6.9,4.5 6.6,4.3 6.4,4.2 C6.1,4.1 5.7,4.1 5.2,4.1 L4.5,4.1 L4.5,19.1 L4.5,19.1 Z" id="Shape"></path>
                <polygon id="Shape" points="17 22.4 13.4 0.8 17.2 0.8 19.4 15.4 21.4 0.8 25.4 0.8 21.7 22.4"></polygon>
                <path d="M25.8,22.4 L29.6,0.8 L34.6,0.8 L38.4,22.4 L34.3,22.4 L33.6,17.8 L30.7,17.8 L30,22.4 L25.8,22.4 L25.8,22.4 Z M31.1,15 L33.2,15 L32.1,6.6 L31.1,15 L31.1,15 Z" id="Shape"></path>
                <polygon id="Shape" points="40.4 22.4 40.4 0.8 43.5 0.8 47.6 11.2 47.6 0.8 51.3 0.8 51.3 22.4 48.3 22.4 44.2 11.2 44.2 22.4"></polygon>
                <path d="M60.1,22.7 C59,22.7 58,22.5 57.2,22.2 C56.4,21.9 55.8,21.4 55.3,20.7 C54.8,20 54.5,19.3 54.3,18.4 C54.1,17.5 54,16.6 54,15.4 L54,7.7 C54,6.5 54.1,5.5 54.3,4.6 C54.5,3.7 54.8,3 55.3,2.3 C55.8,1.7 56.4,1.2 57.2,0.8 C58,0.5 58.9,0.3 60.1,0.3 C61.2,0.3 62.1,0.4 62.9,0.7 C63.7,1 64.3,1.4 64.7,2 C65.1,2.6 65.4,3.2 65.6,4 C65.8,4.7 65.9,5.6 65.9,6.5 L65.9,8.7 L61.6,8.7 L61.6,6.5 L61.6,5.7 C61.6,5.5 61.6,5.3 61.5,5 C61.5,4.7 61.4,4.5 61.3,4.4 C61.2,4.3 61.1,4.1 60.9,4 C60.7,3.9 60.5,3.8 60.2,3.8 C59.9,3.8 59.7,3.9 59.5,4 C59.3,4.1 59.2,4.2 59.1,4.4 C59,4.6 58.9,4.8 58.9,5 C58.9,5.2 58.8,5.5 58.8,5.7 L58.8,6.5 L58.8,16.7 C58.8,17.6 58.9,18.2 59.1,18.7 C59.3,19.2 59.7,19.4 60.3,19.4 C60.6,19.4 60.8,19.3 61,19.2 C61.2,19.1 61.3,19 61.4,18.8 C61.5,18.7 61.6,18.4 61.6,18.2 C61.7,17.9 61.7,17.7 61.7,17.5 L61.7,16.7 L61.7,14.4 L66,14.4 L66,16.3 C66,17.1 65.9,17.8 65.8,18.4 C65.7,19 65.5,19.6 65.2,20.2 C64.9,20.8 64.6,21.2 64.1,21.6 C63.7,22 63.1,22.3 62.4,22.5 C61.7,22.6 60.9,22.7 60.1,22.7 L60.1,22.7 Z" id="Shape"></path>
                <polygon id="Shape" points="68.2 22.4 68.2 0.8 77.2 0.8 77.2 4.1 72.6 4.1 72.6 9.4 76.1 9.4 76.1 12.7 72.6 12.7 72.6 19.1 77.2 19.1 77.2 22.3 68.2 22.3"></polygon>
                <polygon id="Shape" points="81.2 22.4 81.2 4.3 78.1 4.3 78.1 0.8 88.7 0.8 88.7 4.3 85.6 4.3 85.6 22.4"></polygon>
                <path d="M95.7,22.7 C93.8,22.7 92.4,22.2 91.4,21.1 C90.5,20 90,18.3 89.9,15.9 L93.7,15.3 C93.7,16.7 93.9,17.6 94.2,18.3 C94.5,18.9 94.9,19.2 95.5,19.2 C96.3,19.2 96.6,18.7 96.6,17.6 C96.6,17 96.5,16.5 96.3,16 C96.1,15.5 95.9,15.1 95.6,14.7 C95.3,14.4 94.9,13.9 94.4,13.5 L92.6,11.8 C92.2,11.4 91.8,11 91.5,10.7 C91.2,10.4 90.9,10 90.7,9.5 C90.4,9 90.2,8.5 90.1,8 C90,7.4 89.9,6.8 89.9,6.2 C89.9,4.4 90.4,3 91.4,2 C92.4,1 93.8,0.5 95.5,0.5 C96.1,0.5 96.6,0.6 97.1,0.7 C97.6,0.8 98,1 98.3,1.2 C98.6,1.4 98.9,1.7 99.2,2.1 C99.5,2.4 99.7,2.8 99.8,3.1 C99.9,3.4 100.1,3.8 100.2,4.3 C100.3,4.7 100.4,5.1 100.4,5.5 C100.4,5.9 100.5,6.2 100.5,6.6 L96.7,7.1 L96.7,6.2 C96.7,6 96.7,5.7 96.6,5.4 C96.6,5.1 96.5,4.9 96.5,4.7 C96.4,4.5 96.4,4.4 96.3,4.2 C96.2,4.1 96.1,4 95.9,3.9 C95.7,3.8 95.6,3.8 95.4,3.8 C95,3.8 94.7,4 94.5,4.3 C94.3,4.6 94.2,5 94.2,5.5 C94.2,5.9 94.2,6.3 94.3,6.6 C94.4,6.9 94.6,7.3 94.8,7.6 C95,7.9 95.2,8.1 95.4,8.3 C95.5,8.5 95.8,8.7 96.1,9 L97.8,10.6 C98.3,11.1 98.7,11.5 99,11.9 C99.3,12.3 99.7,12.8 100,13.3 C100.3,13.8 100.5,14.4 100.7,15 C100.9,15.6 100.9,16.3 100.9,17 C100.9,18.6 100.4,19.9 99.4,20.9 C98.6,22.2 97.3,22.7 95.7,22.7 L95.7,22.7 Z" id="Shape"></path>
            </g>
            <g id="Group-2">
                <path d="M12.7,23.2 C12.3,22.9 12.1,22.8 11.7,22.6 C9.7,21.7 7.5,19.9 6.2,21.5 C6.1,21.7 4.9,24.8 4.8,25 L-5.68434189e-14,36.9 L7.1,36.9 L12.3,24.5 C12.4,24.2 12.8,23.3 12.7,23.2 L12.7,23.2 Z" id="Shape" fill="#528411"></path>
                <polygon id="Shape" fill="#7EC624" points="23.2 22.3 29.6 36.9 36.3 36.9 29.2 18.8"></polygon>
                <path d="M24.8,8.5 C23.6,6.1 22.3,3.8 20.4,1.9 C18.9,0.4 17.6,0.2 16.2,1.8 C14.6,3.6 11.7,9.1 10.9,11 C8.2,16.9 7.6,17.7 5.4,23.4 C7.2,21.7 8.6,21.6 10.4,21.8 C10.7,21.8 12.9,22.3 13.2,22.1 C13.5,22 13.8,21.1 13.9,20.9 C15,18.2 17.7,12 18.1,11.3 C19.3,13.9 20.3,16.3 21.6,19 C23.6,17.7 25.6,16.2 27.6,14.8 C26.8,12.7 25.8,10.6 24.8,8.5 L24.8,8.5 Z" id="Shape" fill="#7EC722"></path>
                <polygon id="Shape" fill="#68A61D" points="24.6 25.6 30.6 22.4 29.4 19.3 23.6 23.3"></polygon>
                <path d="M13.6,21.8 C12.6,21.7 9.4,21.1 7.5,22 C6.2,22.6 5.6,23.1 5.5,23.3 L5.5,23.3 C6.3,22.8 6.8,22.4 8.1,22.3 C9.2,22.2 10.3,22.7 10.8,22.9 C11.6,23.4 12.5,24.1 12.5,24.1 L16.8,27.6 C16.9,27.7 17,27.7 17.1,27.6 L37.8,13.5 L37.8,13.5 L37.8,13.2 L34.5,10.1 L34.5,10.1 L17.3,22.3 C17.1,22.4 16.9,22.5 16.7,22.4 C16,22.3 14.3,21.9 13.6,21.8 L13.6,21.8 Z" id="Shape" fill="#7FAF49"></path>
                <path d="M13.6,21.5 C12.6,21.4 9.4,20.8 7.5,21.7 C6.1,22.4 5.4,23.3 5.4,23.3 C5.4,23.3 6.5,22.2 8.1,22 C9.1,21.8 10.3,22.3 10.8,22.6 C11.6,23.1 12.5,23.8 12.5,23.8 L16.8,27.3 C16.9,27.4 17,27.4 17.1,27.3 L37.8,13.2 L34.5,9.8 L17.3,22 C17.1,22.1 16.9,22.2 16.7,22.1 C16,21.9 14.3,21.6 13.6,21.5 L13.6,21.5 Z" id="Shape" fill="#B6DA52"></path>
            </g>
        </g>
    </g>
</svg>