<svg xmlns="http://www.w3.org/2000/svg" width="89" height="73" viewBox="0 0 89 73" xmlns:xlink="http://www.w3.org/1999/xlink"><defs><filter id="a" width="200%" height="200%" x="-50%" y="-50%" filterUnits="objectBoundingBox"><feOffset in="SourceAlpha" result="shadowOffsetOuter1"/><feGaussianBlur stdDeviation="1" in="shadowOffsetOuter1" result="shadowBlurOuter1"/><feColorMatrix values="0 0 0 0 0 0 0 0 0 0 0 0 0 0 0 0 0 0 0.253623188 0" in="shadowBlurOuter1" result="shadowMatrixOuter1"/><feMerge><feMergeNode in="shadowMatrixOuter1"/><feMergeNode in="SourceGraphic"/></feMerge></filter><path id="c" d="M53.799 49.712c-1.413.525-3.014.5-4.753.327-1.842-.173-3.857-.508-5.992-.508-2.651 0-5.407-.155-8.024-.413-3.306-.319-6.441-.775-8.989-1.239-2.153-.388-4.357-.647-6.474-1.06-2.91-.559-5.683-1.412-8.059-3.34-.688-.542-2.221-.749-2.824-1.387-.758-.809-3.599.44-4.219-.542-.343-.542-2.805-1.102-3.099-1.704-.12-.25-1.154-1.731-1.257-1.989l.207-.93c.052-.215.792-.508.964-.672.534-.568 1.877-.973 1.997-1.214.069-.146.414-.801.275-.904-.137-.112.863-.972.983-1.214.223-.49.878-1.644 1.705-3.116 2.376-4.15 6.301-10.771 6.922-11.787 1.135-1.808 1.928-4.735 3.924-7.258.552-.715 1.328-1.498 2.102-2.273.879-.852 1.756-1.696 2.428-2.445 1.016-1.128 2.6-1.886 3.564-2.841.447-.43.998-.646 1.412-1.025.483-.43 1.239-.447 1.688-.792.379-.31.74-.568 1.085-.792.103-.068.241-.137.379-.198l.292-.146c.121.129.155.284.31.439.413.361.913.783 1.412 1.205.947.758 1.895 1.489 2.204 1.817.276.258.465.465.62.637.585.646.723.912 1.447 1.688.516.576 1.343 1.437 2.892 2.935 2.204 2.144 3.617 3.47 4.684 4.391.861.741 1.498 1.205 2.118 1.627.499.336.999.638 1.602 1.008.585.353 1.239.775 2.1 1.343l-.017.284.051.336c.052.353.138.714-.102 1.084-.241.422-.587.853-.931 1.292-.309.379 1.189.947.913 1.343-.637.886.603 2.049.775 3.082.103.68.103 1.162.172 1.636.069.439.207.87.516 1.429 1.171 1.989 3.651 9.273 4.167 10.978.585 1.825.517 2.815.413 3.977l-.068.715c-.035.413-.069.861-.069 1.395 0 .154-.017.284-.069.387-.361 1.025-2.29.388-2.101 1.774.035.25.241.628.344 1.024.07.353 0 .715.105 1.016.086.276.172.508.275.62z"/><filter id="b" width="200%" height="200%" x="-50%" y="-50%" filterUnits="objectBoundingBox"><feOffset dy="2" in="SourceAlpha" result="shadowOffsetOuter1"/><feGaussianBlur stdDeviation="2" in="shadowOffsetOuter1" result="shadowBlurOuter1"/><feColorMatrix values="0 0 0 0 0 0 0 0 0 0 0 0 0 0 0 0 0 0 0.5 0" in="shadowBlurOuter1"/></filter><path id="d" d="M35.355-.353l-3.528.224c-.705 0-1.137.232-1.688.361-.172.043-.379.947-.551 1.189l-.068.068-.121.052-.258.121-.086.043.172.336c.052.129.12.257.155.395l.103.251c.173.482.345 1.006.551 1.523.43 1.016 1.034 1.972 2.221 2.411.31.112.637.301.983.534 1.72 1.223 3.804 3.865 5.096 5.268 4.546 4.882 8.11 10.668 10.296 12.235 3.324 2.393 5.064 4.305 6.768 6.268.534.619 1.068 1.248 1.636 1.902.171.164.309.337.464.5.156.172.31.344.483.516l.155.173c.361.379.74.766 1.153 1.162l.121.103c.137.095.362.207.62.31l.31.147.207.077c.413.172.791.344.912.474.396.413.723.758 1.016 1.041.654.655 2.204.38 2.618.44.653.094.206.207 1.653-.629.723-.421 1.102-.637 1.308-.741l.224-.137.051-.027 1.413-.817c-.378-.663-.724-1.36-1.068-2.084l-.173-.344-.447-1.042c-.154-.353-.309-.714-.447-1.076-.569-1.421-1.103-2.901-1.619-4.425-1.636-4.77-3.134-9.763-5.303-13.56l-3.41-6.63c-.31-.43-.689-.818-1.154-1.205l-.292-.233c-.379-.301-.828-.594-1.378-.895-.276-.155-.585-.319-.895-.482l-.173-.086-.31-.146-.31-.147c-1.307-.413-2.238-.68-3.03-.818l-.413-.069c-.965-.103-1.877-.198-3.134-.379-.792-.111-1.722-.344-2.772-.551-1.671-.327-3.565-.714-6.251-1.403-.546-.142-1.106-.194-1.665-.198h-.144z"/><path id="e" d="M77.605 43.58c-.004.479-.052.964-.148 1.448-.171.81-.447 1.576-.826 2.274-.481.895-1.102 1.687-1.877 2.341-.292.241-.585.473-.894.68-.225.138-.449.276-.673.397-.877.473-1.618.86-2.6 1.024-1.119.189-2.376-.19-3.495-.404-1.222-.242-2.584-.716-3.564-1.353-.74-.473-1.24-.757-1.809-1.412-.189-.223-.379-.472-.55-.722-.207-.302-.414-.629-.568-.956-.466-.896-.776-1.869-.879-2.885-.086-.791-.069-1.601.103-2.41.344-1.756.414-3.668 1.653-4.822.362-.318.982-.507 1.378-.765.259-.164 1.239-.724 1.515-.862.758-.387 1.172-.629 2.032-.792 1.137-.224 2.651-.482 3.891-.241 1.102.216 2.755 1.593 3.72 2.178.826.517.982 1.076 1.618 1.843.172.197.31.404.466.62.275.396.517.817.723 1.248.491 1.059.773 2.225.784 3.425v.146z"/><path id="g" d="M54.804 65.94c.691-.119 1.273-.407 1.595-.791 1.309-1.308 1.739-2.195 2.118-3.753l.619-3.298c.173-.827.207-1.937.241-3.005 0-.853 0-1.67.018-2.29.017-.724-.018-1.446-.121-2.161-.24-1.627-.843-3.211-1.963-4.452-2.238-1.85-3.529-3.03-4.855-4.02-.585-.439-1.171-.853-1.86-1.267-.688-.412-1.446-.834-2.377-1.299-1.204-.611-2.066-1.283-3.408-1.739-1.499-.516-3.531-1.472-5.201-2.007-2.635-.834-5.51-1.282-8.024-1.772-2.617-.508-5.044-1.404-7.784-1.602-1.618-.112-3.547.456-5.131.318-1.446-.12-2.892-.653-4.27-.671-1.05-.025-2.015.439-2.996.491-.757.034-1.498.094-2.204.18-.723.078-1.412.181-2.067.311-1.721.335-3.322.843-4.7 1.558-1.533.551-2.393 2.161-3.048 3.539-.276.619-.552 1.282-.844 1.954-.258.628-.602 1.232-.929 1.834-.397.748-.776 1.498-.931 2.324-.275 1.421-.671 2.644-.998 3.702-.37 1.211-.682 2.217-.684 3.069.001.546.123 1.014.425 1.434 1.205.705 2.308 1.214 4.202 1.498.723.112 1.481.172 2.29.207.827.026 1.67.035 2.566.051 1.171.018 2.376.026 3.615.026 1.653 0 3.376-.008 5.098 0 1.928.009 3.856.035 5.751.103 3.203.121 6.251.362 8.85.87 2.514.492 5.511 1.093 8.611 1.886 1.963.499 3.96 1.076 5.888 1.756 1.722.594 3.375 1.274 4.925 2.023 1.171.586 3.134 1.516 3.874 2.222.74.714.277 1.972 1.016 2.351.405.213.832.349 1.255.42h1.438z"/><filter id="f" width="200%" height="200%" x="-50%" y="-50%" filterUnits="objectBoundingBox"><feOffset in="SourceAlpha" result="shadowOffsetOuter1"/><feGaussianBlur stdDeviation=".5" in="shadowOffsetOuter1" result="shadowBlurOuter1"/><feColorMatrix values="0 0 0 0 0 0 0 0 0 0 0 0 0 0 0 0 0 0 0.189113451 0" in="shadowBlurOuter1"/></filter></defs><g filter="url(#a)" transform="matrix(-1 0 0 1 80 4)" fill="none"><use fill="#000" filter="url(#b)" xlink:href="#c"/><use fill="#DA2F35" xlink:href="#c"/><use fill="#B2272C" xlink:href="#d"/><use fill="#F1F4F3" xlink:href="#e"/><use fill="#000" filter="url(#f)" xlink:href="#g"/><use fill="#F4F7F7" xlink:href="#g"/></g></svg>