<svg xmlns="http://www.w3.org/2000/svg" viewBox="0 0 148 43" xmlns:xlink="http://www.w3.org/1999/xlink"><defs><linearGradient id="c" x1="50%" x2="50%" y1="0%" y2="100%"><stop stop-color="#D81812" offset="0%"/><stop stop-color="#D2110E" offset="52.374%"/><stop stop-color="#C00700" offset="100%"/></linearGradient><path id="b" d="M18.419 15.895c-.443.165-.944.157-1.489.102-.577-.054-1.208-.159-1.877-.159-.83 0-1.694-.049-2.514-.129-1.036-.1-2.018-.243-2.816-.388-.674-.122-1.365-.203-2.028-.332-.912-.175-1.78-.443-2.525-1.047-.216-.17-.696-.235-.885-.435-.237-.254-1.127.138-1.322-.17-.107-.17-.879-.345-.971-.534l-.394-.623.065-.291c.016-.067.248-.159.302-.211.167-.178.588-.305.626-.381.022-.046.13-.251.086-.283-.043-.035.27-.305.308-.381.07-.154.275-.515.534-.977.744-1.301 1.974-3.376 2.168-3.694.356-.567.604-1.484 1.229-2.275.173-.224.416-.47.658-.712.275-.267.55-.532.761-.766.318-.354.814-.591 1.116-.89l.442-.321c.151-.135.388-.14.529-.248l.34-.248.119-.062.091-.046.097.138.442.378c.297.238.594.467.69.57l.194.2.453.529c.162.181.421.45.906.92.69.672 1.133 1.088 1.467 1.376.27.232.469.378.663.51l.502.316.658.421-.005.089.016.105c.016.111.043.224-.032.34-.075.132-.184.267-.292.405l.286.421c-.2.278.189.642.243.966l.054.513c.022.138.065.273.162.448.367.623 1.144 2.906 1.305 3.441.183.572.162.882.129 1.247l-.021.224-.022.437-.022.121c-.113.321-.717.122-.658.556l.108.321.033.318.086.194z"/><filter id="a" width="200%" height="200%" x="-50%" y="-50%" filterUnits="objectBoundingBox"><feOffset dy="2" in="SourceAlpha" result="shadowOffsetOuter1"/><feGaussianBlur stdDeviation="2" in="shadowOffsetOuter1" result="shadowBlurOuter1"/><feColorMatrix values="0 0 0 0 0 0 0 0 0 0 0 0 0 0 0 0 0 0 0.5 0" in="shadowBlurOuter1"/></filter><linearGradient id="f" x1="79.368%" x2="26.517%" y1="80.231%" y2="0%"><stop stop-color="#D90715" offset="0%"/><stop stop-color="#B6090B" offset="100%"/></linearGradient><path id="e" d="M12.641.203l-1.105.07c-.221 0-.356.073-.529.113-.054.013-.119.297-.173.373l-.021.021-.038.016-.081.038-.027.013.054.105.049.124.032.079.173.477c.135.318.324.618.696.756.097.035.2.094.308.167.539.383 1.192 1.211 1.596 1.651 1.424 1.53 2.54 3.344 3.225 3.835 1.041.75 1.586 1.349 2.12 1.965l.512.596.145.157.151.162.049.054.361.364.038.032.194.097.097.046.065.024c.129.054.248.108.286.149l.318.326c.205.205.69.119.82.138.205.029.065.065.518-.197l.41-.232.07-.043.016-.008.443-.256c-.118-.208-.227-.426-.335-.653l-.054-.108-.14-.327-.14-.337c-.178-.445-.346-.909-.507-1.387-.512-1.495-.982-3.06-1.661-4.25l-1.068-2.078c-.097-.135-.216-.256-.361-.378l-.091-.073c-.119-.094-.259-.186-.432-.281l-.28-.151-.054-.027-.097-.046-.097-.046c-.409-.129-.701-.213-.949-.256l-.129-.022c-.302-.032-.588-.062-.982-.119-.248-.035-.539-.108-.868-.173-.523-.102-1.117-.224-1.958-.44-.171-.045-.346-.061-.522-.062h-.045z"/><filter id="d" width="200%" height="200%" x="-50%" y="-50%" filterUnits="objectBoundingBox"><feOffset dy="2" in="SourceAlpha" result="shadowOffsetOuter1"/><feGaussianBlur stdDeviation="2" in="shadowOffsetOuter1" result="shadowBlurOuter1"/><feColorMatrix values="0 0 0 0 0 0 0 0 0 0 0 0 0 0 0 0 0 0 0.5 0" in="shadowBlurOuter1"/></filter><path id="h" d="M25.876 13.973c-.001.15-.016.302-.046.454-.054.254-.14.494-.259.713-.151.281-.345.529-.588.734l-.28.213-.211.124c-.275.148-.507.27-.814.321-.351.059-.744-.06-1.095-.127-.383-.076-.809-.224-1.116-.424-.232-.148-.388-.237-.567-.443l-.172-.226-.178-.3c-.146-.281-.243-.586-.275-.904-.027-.248-.022-.502.032-.755.108-.55.13-1.15.518-1.511.113-.1.308-.159.432-.24l.475-.27c.237-.121.367-.197.637-.248.356-.07.83-.151 1.219-.076.345.068.863.499 1.165.683.259.162.308.337.507.578l.146.194c.086.124.162.256.226.391.154.332.242.697.246 1.074v.046z"/><filter id="g" width="200%" height="200%" x="-50%" y="-50%" filterUnits="objectBoundingBox"><feOffset dy="2" in="SourceAlpha" result="shadowOffsetOuter1"/><feGaussianBlur stdDeviation="2" in="shadowOffsetOuter1" result="shadowBlurOuter1"/><feColorMatrix values="0 0 0 0 0 0 0 0 0 0 0 0 0 0 0 0 0 0 0.5 0" in="shadowBlurOuter1"/></filter><path id="j" d="M18.734 20.981c.216-.037.399-.128.5-.248.41-.41.545-.688.663-1.176l.194-1.034c.054-.259.065-.607.075-.942l.006-.718c.005-.227-.006-.453-.038-.677-.075-.51-.264-1.006-.615-1.395-.701-.58-1.105-.95-1.521-1.26-.183-.138-.367-.267-.583-.397-.216-.129-.453-.261-.745-.407-.377-.192-.647-.402-1.068-.545-.47-.162-1.106-.461-1.629-.629-.825-.261-1.726-.402-2.514-.555-.82-.159-1.58-.44-2.438-.502-.507-.035-1.111.143-1.607.1-.453-.038-.906-.205-1.338-.21-.329-.008-.631.138-.939.154-.237.011-.469.029-.69.056-.226.024-.442.057-.647.097-.539.105-1.041.264-1.472.488-.48.173-.75.677-.955 1.109l-.264.612c-.081.197-.189.386-.291.575-.124.234-.243.47-.292.728-.086.445-.21.829-.313 1.16-.116.38-.214.695-.214.962 0 .171.039.318.133.449.377.221.723.381 1.316.47.226.035.464.054.717.065l.804.016 1.132.008h1.597c.604.003 1.208.011 1.802.032 1.003.038 1.958.113 2.772.273.788.154 1.726.343 2.697.591.615.156 1.24.337 1.844.55.539.186 1.057.399 1.543.634.367.184.982.475 1.214.696.232.224.087.618.318.737.127.067.261.109.393.132h.45z"/><filter id="i" width="200%" height="200%" x="-50%" y="-50%" filterUnits="objectBoundingBox"><feOffset in="SourceAlpha" result="shadowOffsetOuter1"/><feGaussianBlur stdDeviation="1.5" in="shadowOffsetOuter1" result="shadowBlurOuter1"/><feColorMatrix values="0 0 0 0 0 0 0 0 0 0 0 0 0 0 0 0 0 0 0.5 0" in="shadowBlurOuter1"/></filter></defs><g fill="none"><path fill="#605F61" d="M42.1 35.4v-21.6h5c1.3 0 2.4.1 3.3.4.9.3 1.6.7 2.1 1.2.5.6.9 1.3 1.1 2.1.2.8.3 1.9.3 3.1v7.8c0 1.3-.1 2.3-.3 3.2-.2.8-.6 1.6-1.1 2.1-.5.6-1.2 1-2.1 1.3-.9.3-1.9.4-3.2.4h-5.1zm4.4-3.3h.7c.3 0 .6 0 .9-.1.2 0 .4-.1.6-.3.2-.1.3-.2.4-.4.1-.1.2-.3.2-.6s.1-.5.1-.7v-10.2c0-.5 0-1-.1-1.3 0-.3-.1-.6-.3-.8-.1-.2-.4-.4-.6-.5-.3-.1-.7-.1-1.2-.1h-.7v15zm12.5 3.3l-3.6-21.6h3.8l2.2 14.6 2-14.6h4l-3.7 21.6h-4.7zm8.8 0l3.8-21.6h5l3.8 21.6h-4.1l-.7-4.6h-2.9l-.7 4.6h-4.2zm5.3-7.4h2.1l-1.1-8.4-1 8.4zm9.3 7.4v-21.6h3.1l4.1 10.4v-10.4h3.7v21.6h-3l-4.1-11.2v11.2h-3.8zm19.7.3c-1.1 0-2.1-.2-2.9-.5-.8-.3-1.4-.8-1.9-1.5s-.8-1.4-1-2.3c-.2-.9-.3-1.8-.3-3v-7.7c0-1.2.1-2.2.3-3.1.2-.9.5-1.6 1-2.3.5-.6 1.1-1.1 1.9-1.5.8-.3 1.7-.5 2.9-.5 1.1 0 2 .1 2.8.4.8.3 1.4.7 1.8 1.3.4.6.7 1.2.9 2 .2.7.3 1.6.3 2.5v2.2h-4.3v-3c0-.2 0-.4-.1-.7 0-.3-.1-.5-.2-.6-.1-.1-.2-.3-.4-.4-.2-.1-.4-.2-.7-.2-.3 0-.5.1-.7.2-.2.1-.3.2-.4.4-.1.2-.2.4-.2.6l-.1.7v11c0 .9.1 1.5.3 2 .2.5.6.7 1.2.7.3 0 .5-.1.7-.2.2-.1.3-.2.4-.4.1-.1.2-.4.2-.6.1-.3.1-.5.1-.7v-3.1h4.3v1.9c0 .8-.1 1.5-.2 2.1-.1.6-.3 1.2-.6 1.8-.3.6-.6 1-1.1 1.4-.4.4-1 .7-1.7.9-.7.1-1.5.2-2.3.2zm8.1-.3v-21.6h9v3.3h-4.6v5.3h3.5v3.3h-3.5v6.4h4.6v3.2h-9v.1zm13 0v-18.1h-3.1v-3.5h10.6v3.5h-3.1v18.1h-4.4zm14.5.3c-1.9 0-3.3-.5-4.3-1.6-.9-1.1-1.4-2.8-1.5-5.2l3.8-.6c0 1.4.2 2.3.5 3 .3.6.7.9 1.3.9.8 0 1.1-.5 1.1-1.6 0-.6-.1-1.1-.3-1.6-.2-.5-.4-.9-.7-1.3-.3-.3-.7-.8-1.2-1.2l-1.8-1.7-1.1-1.1c-.3-.3-.6-.7-.8-1.2-.3-.5-.5-1-.6-1.5-.1-.6-.2-1.2-.2-1.8 0-1.8.5-3.2 1.5-4.2s2.4-1.5 4.1-1.5c.6 0 1.1.1 1.6.2s.9.3 1.2.5c.3.2.6.5.9.9.3.3.5.7.6 1 .1.3.3.7.4 1.2.1.4.2.8.2 1.2l.1 1.1-3.8.5v-.9c0-.2 0-.5-.1-.8 0-.3-.1-.5-.1-.7l-.2-.5c-.1-.1-.2-.2-.4-.3-.2-.1-.3-.1-.5-.1-.4 0-.7.2-.9.5-.2.3-.3.7-.3 1.2 0 .4 0 .8.1 1.1.1.3.3.7.5 1 .2.3.4.5.6.7.1.2.4.4.7.7l1.7 1.6c.5.5.9.9 1.2 1.3.3.4.7.9 1 1.4.3.5.5 1.1.7 1.7.2.6.2 1.3.2 2 0 1.6-.5 2.9-1.5 3.9-.8 1.3-2.1 1.8-3.7 1.8z"/><path fill="#528411" d="M13.7 29.2c-.4-.3-.6-.4-1-.6-2-.9-4.2-2.7-5.5-1.1l-1.4 3.5-4.8 11.9h7.1l5.2-12.4c.1-.3.5-1.2.4-1.3z"/><path fill="#7EC624" d="M24.2 28.3l6.4 14.6h6.7l-7.1-18.1z"/><path fill="#7EC722" d="M25.8 14.5c-1.2-2.4-2.5-4.7-4.4-6.6-1.5-1.5-2.8-1.7-4.2-.1-1.6 1.8-4.5 7.3-5.3 9.2-2.7 5.9-3.3 6.7-5.5 12.4 1.8-1.7 3.2-1.8 5-1.6.3 0 2.5.5 2.8.3.3-.1.6-1 .7-1.2 1.1-2.7 3.8-8.9 4.2-9.6 1.2 2.6 2.2 5 3.5 7.7 2-1.3 4-2.8 6-4.2-.8-2.1-1.8-4.2-2.8-6.3z"/><path fill="#68A61D" d="M25.6 31.6l6-3.2-1.2-3.1-5.8 4z"/><path fill="#7FAF49" d="M14.6 27.8c-1-.1-4.2-.7-6.1.2-1.3.6-1.9 1.1-2 1.3.8-.5 1.3-.9 2.6-1 1.1-.1 2.2.4 2.7.6.8.5 1.7 1.2 1.7 1.2l4.3 3.5c.1.1.2.1.3 0l20.7-14.1v-.3l-3.3-3.1-17.2 12.2c-.2.1-.4.2-.6.1l-3.1-.6z"/><path fill="#B6DA52" d="M14.6 27.5c-1-.1-4.2-.7-6.1.2-1.4.7-2.1 1.6-2.1 1.6s1.1-1.1 2.7-1.3c1-.2 2.2.3 2.7.6.8.5 1.7 1.2 1.7 1.2l4.3 3.5c.1.1.2.1.3 0l20.7-14.1-3.3-3.4-17.2 12.2c-.2.1-.4.2-.6.1-.7-.2-2.4-.5-3.1-.6z"/><g transform="matrix(-1 0 0 1 28 0)"><use fill="#000" filter="url(#a)" xlink:href="#b"/><use fill="url(#c)" xlink:href="#b"/><use fill="#000" filter="url(#d)" xlink:href="#e"/><use fill="url(#f)" xlink:href="#e"/><use fill="#000" filter="url(#g)" xlink:href="#h"/><use fill="#F1F4F3" xlink:href="#h"/><use fill="#000" filter="url(#i)" xlink:href="#j"/><use fill="#F4F7F7" xlink:href="#j"/></g></g></svg>