<svg xmlns="http://www.w3.org/2000/svg" viewBox="582 20.9 800 800" enable-background="new 582 20.9 800 800"><style type="text/css">.st0{fill:url(#SVGID_1_);} .st1{fill:url(#SVGID_2_);} .st2{fill:url(#SVGID_3_);}</style><linearGradient id="SVGID_1_" gradientUnits="userSpaceOnUse" x1="935.35" y1="780.598" x2="942.35" y2="138.599" gradientTransform="matrix(1 0 0 -1 0 841.67)"><stop offset="0" stop-color="#2D84B1"/><stop offset="1" stop-color="#70BC35"/></linearGradient><path class="st0" d="M1289.6 182.8c2.8-2.8 4.3-6.5 4.3-10.5l-1-80.6c-.2-8.2-6.9-14.7-15-14.7-8.2.2-14.7 6.9-14.7 15l.5 44.8-2.1-2.1c-157.8-154.2-411.5-151.2-565.7 6.5-53.5 54.8-89.9 123.1-105.5 197.7-15 72.6-10 147.8 15 217.3 2.1 6 7.8 9.8 13.9 9.8 1.6 0 3.4-.3 5.1-.8 7.7-2.8 11.8-11.3 9-19-48.4-134.7-16.2-282 83.7-384.2 142.7-146 377.6-148.8 523.6-6l2.3 2.3-44.8.5c-8.2.2-14.7 6.9-14.7 15 .2 8.2 6.7 14.7 14.9 14.7h.2l80.6-1c3.9-.3 7.7-1.8 10.4-4.7z"/><linearGradient id="SVGID_2_" gradientUnits="userSpaceOnUse" x1="1020.78" y1="781.53" x2="1027.78" y2="139.53" gradientTransform="matrix(1 0 0 -1 0 841.67)"><stop offset="0" stop-color="#2D84B1"/><stop offset="1" stop-color="#70BC35"/></linearGradient><path class="st1" d="M1358.5 285.3c-2.8-7.7-11.3-11.8-19-9-7.7 2.8-11.8 11.3-9 19 48.4 134.7 16.2 282-83.7 384.2-69.1 70.7-161.7 110.3-260.6 111.4-99.1 1.3-192.4-36.3-263-105.3l-2.3-2.3 44.8-.5c8.2-.2 14.7-6.9 14.7-15-.2-8.2-6.7-14.9-15-14.7l-80.6 1c-8.2.2-14.7 6.9-14.7 15l1 80.6c.2 8.2 6.7 14.7 14.9 14.7h.2c8.2-.2 14.7-6.9 14.7-15l-.5-44.8 2.3 2.3c75.3 73.5 174.2 113.9 279.3 113.9h4.7c106.8-1.3 206.8-44 281.5-120.3 53.5-54.8 89.9-123.1 105.4-197.6 15-72.8 9.9-148-15.1-217.6z"/><linearGradient id="SVGID_3_" gradientUnits="userSpaceOnUse" x1="978.012" y1="781.064" x2="985.012" y2="139.064" gradientTransform="matrix(1 0 0 -1 0 841.67)"><stop offset="0" stop-color="#2D84B1"/><stop offset="1" stop-color="#70BC35"/></linearGradient><path class="st2" d="M981.8 179.3c-31.7 0-62.8 6.2-92.2 18.5-59.5 24.7-105.9 71.1-130.6 130.6-24.7 59.5-24.7 125.2 0 184.7 37.4 90.6 125.1 149.1 223.1 149.1 31.7 0 62.8-6.2 92.2-18.5 123-50.8 181.7-192.3 130.7-315.3-37.5-90.5-125.1-149.1-223.2-149.1zm186.1 140h-48.9c-9.6-35.3-24.2-65.4-42.3-88.1 38 18.9 70.1 49.5 91.2 88.1zm-385 173.1c-16.8-46.6-16.8-96.9 0-143.5h67.4c-4.1 22.4-6.2 46.6-6.2 71.8 0 25 2.5 49 6.7 71.8l-67.9-.1zm90.7-71.8c0-25.3 2.5-49.5 6.7-71.8h92.7v143.5h-91.9c-4.7-22.5-7.5-46.7-7.5-71.7zm129.1-205.8c37.3 8.3 68.3 48.1 85.3 104.6h-85.3v-104.6zm-29.5 0v104.5h-85.3c16.9-56.4 48-96.2 85.3-104.5zm0 307.3v104.3c-35-9.2-66-49.5-83.9-104.3h83.9zm29.5 104.3v-104.3h83.9c-17.8 54.8-48.9 95.2-83.9 104.3zm0-134v-143.5h92.7c4.4 22.2 6.7 46.4 6.7 71.8 0 25-2.8 49.2-7.7 71.8l-91.7-.1zm123-143.5h55.6c17.3 47.9 16.2 98.6-.2 143.5h-56.1c4.4-22.7 6.7-46.8 6.7-71.8 0-25.1-2.1-49.2-6-71.7zm-224.6-123.8c1.6-.7 3.4-1.3 5.1-2-21.4 23.5-38.4 56.7-49.2 96.3h-60.8c23-42.5 59.6-75.7 104.9-94.3zm-105 297h61.6c11.4 40.1 29.6 73.7 52 97.8-48-17.5-88.6-51.8-113.6-97.8zm276.9 89.8c19.1-23.2 34.7-54.1 45-89.8h49.7c-20.8 38-53.1 70-94.7 89.8z"/></svg>