<svg xmlns="http://www.w3.org/2000/svg" viewBox="618.1 171.1 727.7 629.8" enable-background="new 618.1 171.1 727.7 629.8"><style type="text/css">.st0{fill:url(#SVGID_1_);} .st1{fill:url(#SVGID_2_);} .st2{fill:url(#SVGID_3_);} .st3{fill:url(#SVGID_4_);} .st4{fill:url(#SVGID_5_);} .st5{fill:url(#SVGID_6_);} .st6{fill:url(#SVGID_7_);} .st7{fill:url(#SVGID_8_);} .st8{fill:url(#SVGID_9_);} .st9{fill:url(#SVGID_10_);}</style><linearGradient id="SVGID_1_" gradientUnits="userSpaceOnUse" x1="943.744" y1="681.62" x2="948.744" y2="46.62" gradientTransform="matrix(1 0 0 -1 0 841.67)"><stop offset="0" stop-color="#2D84B0"/><stop offset="1" stop-color="#72BD33"/></linearGradient><path class="st0" d="M835.2 573.7h223.4c7.1 0 12.8-5.7 12.8-12.8s-5.7-12.8-12.8-12.8h-223.4c-7.1 0-12.8 5.7-12.8 12.8 0 7.1 5.7 12.8 12.8 12.8z"/><linearGradient id="SVGID_2_" gradientUnits="userSpaceOnUse" x1="1055.972" y1="682.504" x2="1060.972" y2="47.504" gradientTransform="matrix(1 0 0 -1 0 841.67)"><stop offset="0" stop-color="#2D84B0"/><stop offset="1" stop-color="#72BD33"/></linearGradient><path class="st1" d="M1282 480.1h-446.8c-7.1 0-12.8 5.7-12.8 12.8s5.7 12.8 12.8 12.8h446.8c7.1 0 12.8-5.7 12.8-12.8s-5.7-12.8-12.8-12.8z"/><linearGradient id="SVGID_3_" gradientUnits="userSpaceOnUse" x1="945.64" y1="681.635" x2="950.64" y2="46.635" gradientTransform="matrix(1 0 0 -1 0 841.67)"><stop offset="0" stop-color="#2D84B0"/><stop offset="1" stop-color="#72BD33"/></linearGradient><path class="st2" d="M835.2 332.8h223.4c7.1 0 12.8-5.7 12.8-12.8s-5.7-12.8-12.8-12.8h-223.4c-7.1 0-12.8 5.7-12.8 12.8s5.7 12.8 12.8 12.8z"/><linearGradient id="SVGID_4_" gradientUnits="userSpaceOnUse" x1="1057.87" y1="682.519" x2="1062.87" y2="47.519" gradientTransform="matrix(1 0 0 -1 0 841.67)"><stop offset="0" stop-color="#2D84B0"/><stop offset="1" stop-color="#72BD33"/></linearGradient><path class="st3" d="M835.2 264.7h446.8c7.1 0 12.8-5.7 12.8-12.8 0-7.1-5.7-12.8-12.8-12.8h-446.8c-7.1 0-12.8 5.7-12.8 12.8 0 7.1 5.7 12.8 12.8 12.8z"/><linearGradient id="SVGID_5_" gradientUnits="userSpaceOnUse" x1="980.956" y1="681.913" x2="985.956" y2="46.913" gradientTransform="matrix(1 0 0 -1 0 841.67)"><stop offset="0" stop-color="#2D84B0"/><stop offset="1" stop-color="#72BD33"/></linearGradient><path class="st4" d="M1333.1 171.1h-702.2c-7.1 0-12.8 5.7-12.8 12.8v204.3c0 7.1 5.7 12.8 12.8 12.8h702.1c7.1 0 12.8-5.7 12.8-12.8v-204.3c0-7.1-5.7-12.8-12.7-12.8zm-12.8 204.3h-676.6v-178.8h676.6v178.8z"/><linearGradient id="SVGID_6_" gradientUnits="userSpaceOnUse" x1="730.175" y1="679.939" x2="735.175" y2="44.939" gradientTransform="matrix(1 0 0 -1 0 841.67)"><stop offset="0" stop-color="#2D84B0"/><stop offset="1" stop-color="#72BD33"/></linearGradient><path class="st5" d="M784.1 463h-102.1c-7.1 0-12.8 5.7-12.8 12.8v102.1c0 7.1 5.7 12.8 12.8 12.8h102.1c7.1 0 12.8-5.7 12.8-12.8v-102.1c0-7-5.7-12.8-12.8-12.8zm-12.7 102.2h-76.6v-76.6h76.6v76.6z"/><linearGradient id="SVGID_7_" gradientUnits="userSpaceOnUse" x1="942.089" y1="681.607" x2="947.089" y2="46.607" gradientTransform="matrix(1 0 0 -1 0 841.67)"><stop offset="0" stop-color="#2D84B0"/><stop offset="1" stop-color="#72BD33"/></linearGradient><path class="st6" d="M1058.6 758.3h-223.4c-7.1 0-12.8 5.7-12.8 12.8s5.7 12.8 12.8 12.8h223.4c7.1 0 12.8-5.7 12.8-12.8 0-7-5.8-12.8-12.8-12.8z"/><linearGradient id="SVGID_8_" gradientUnits="userSpaceOnUse" x1="1054.317" y1="682.491" x2="1059.317" y2="47.491" gradientTransform="matrix(1 0 0 -1 0 841.67)"><stop offset="0" stop-color="#2D84B0"/><stop offset="1" stop-color="#72BD33"/></linearGradient><path class="st7" d="M1282 690.3h-446.8c-7.1 0-12.8 5.7-12.8 12.8s5.7 12.8 12.8 12.8h446.8c7.1 0 12.8-5.7 12.8-12.8 0-7.1-5.7-12.8-12.8-12.8z"/><linearGradient id="SVGID_9_" gradientUnits="userSpaceOnUse" x1="728.52" y1="679.926" x2="733.52" y2="44.926" gradientTransform="matrix(1 0 0 -1 0 841.67)"><stop offset="0" stop-color="#2D84B0"/><stop offset="1" stop-color="#72BD33"/></linearGradient><path class="st8" d="M784.1 673.2h-102.1c-7.1 0-12.8 5.7-12.8 12.8v102.1c0 7.1 5.7 12.8 12.8 12.8h102.1c7.1 0 12.8-5.7 12.8-12.8v-102.1c0-7-5.7-12.8-12.8-12.8zm-12.7 102.2h-76.6v-76.6h76.6v76.6z"/><linearGradient id="SVGID_10_" gradientUnits="userSpaceOnUse" x1="732.072" y1="679.954" x2="737.072" y2="44.954" gradientTransform="matrix(1 0 0 -1 0 841.67)"><stop offset="0" stop-color="#2D84B0"/><stop offset="1" stop-color="#72BD33"/></linearGradient><path class="st9" d="M682 349.8h102.1c7.1 0 12.8-5.7 12.8-12.8v-102.1c0-7.1-5.7-12.8-12.8-12.8h-102.1c-7.1 0-12.8 5.7-12.8 12.8v102.1c0 7.1 5.7 12.8 12.8 12.8zm12.8-102.1h76.6v76.6h-76.6v-76.6z"/></svg>