<svg xmlns="http://www.w3.org/2000/svg" viewBox="582 20.9 799.9 800" enable-background="new 582 20.9 799.9 800"><style type="text/css">.st0{fill:url(#SVGID_1_);} .st1{fill:url(#SVGID_2_);} .st2{fill:url(#SVGID_3_);} .st3{fill:url(#SVGID_4_);} .st4{fill:url(#SVGID_5_);} .st5{fill:url(#SVGID_6_);} .st6{fill:url(#SVGID_7_);} .st7{fill:url(#SVGID_8_);} .st8{fill:url(#SVGID_9_);} .st9{fill:url(#SVGID_10_);} .st10{fill:url(#SVGID_11_);} .st11{fill:url(#SVGID_12_);} .st12{fill:url(#SVGID_13_);} .st13{fill:url(#SVGID_14_);} .st14{fill:url(#SVGID_15_);} .st15{fill:url(#SVGID_16_);} .st16{fill:url(#SVGID_17_);} .st17{fill:url(#SVGID_18_);} .st18{fill:url(#SVGID_19_);}</style><linearGradient id="SVGID_1_" gradientUnits="userSpaceOnUse" x1="831.222" y1="805.234" x2="838.222" y2="27.235" gradientTransform="matrix(1 0 0 -1 0 841.67)"><stop offset="0" stop-color="#2B82B4"/><stop offset="1" stop-color="#70BB36"/></linearGradient><path class="st0" d="M915.3 554.2c-7.4 0-13.3 6-13.3 13.3v226.7h-80v-360c0-7.4-6-13.3-13.3-13.3h-53.3c-7.4 0-13.3 6-13.3 13.3 0 7.4 6 13.3 13.3 13.3h40v360c0 7.4 6 13.3 13.3 13.3h106.7c7.4 0 13.3-6 13.3-13.3v-240c0-7.3-6-13.3-13.4-13.3z"/><linearGradient id="SVGID_2_" gradientUnits="userSpaceOnUse" x1="750.649" y1="804.51" x2="757.649" y2="26.509" gradientTransform="matrix(1 0 0 -1 0 841.67)"><stop offset="0" stop-color="#2B82B4"/><stop offset="1" stop-color="#70BB36"/></linearGradient><path class="st1" d="M755.3 527.6c-7.4 0-13.3 6-13.3 13.3v26.7c0 7.4 6 13.3 13.3 13.3 7.4 0 13.3-6 13.3-13.3v-26.7c.1-7.4-5.9-13.3-13.3-13.3z"/><linearGradient id="SVGID_3_" gradientUnits="userSpaceOnUse" x1="1100.369" y1="807.656" x2="1107.369" y2="29.656" gradientTransform="matrix(1 0 0 -1 0 841.67)"><stop offset="0" stop-color="#2B82B4"/><stop offset="1" stop-color="#70BB36"/></linearGradient><path class="st2" d="M1155.3 207.6h-106.6c-7.4 0-13.3 6-13.3 13.3 0 7.4 6 13.3 13.3 13.3h106.7c7.4 0 13.3-6 13.3-13.3s-6-13.3-13.4-13.3z"/><linearGradient id="SVGID_4_" gradientUnits="userSpaceOnUse" x1="979.849" y1="806.572" x2="986.849" y2="28.572" gradientTransform="matrix(1 0 0 -1 0 841.67)"><stop offset="0" stop-color="#2B82B4"/><stop offset="1" stop-color="#70BB36"/></linearGradient><path class="st3" d="M862 260.9c-7.4 0-13.3 6-13.3 13.3 0 7.3 6 13.3 13.3 13.3h240c7.4 0 13.3-6 13.3-13.3 0-7.3-6-13.3-13.3-13.3h-240z"/><linearGradient id="SVGID_5_" gradientUnits="userSpaceOnUse" x1="1176.114" y1="808.338" x2="1183.114" y2="30.338" gradientTransform="matrix(1 0 0 -1 0 841.67)"><stop offset="0" stop-color="#2B82B4"/><stop offset="1" stop-color="#70BB36"/></linearGradient><path class="st4" d="M1182 607.6c-7.4 0-13.3 6-13.3 13.3v133.3c0 7.4 6 13.3 13.3 13.3s13.3-6 13.3-13.3v-133.3c0-7.4-5.9-13.3-13.3-13.3z"/><linearGradient id="SVGID_6_" gradientUnits="userSpaceOnUse" x1="642.857" y1="803.54" x2="649.857" y2="25.54" gradientTransform="matrix(1 0 0 -1 0 841.67)"><stop offset="0" stop-color="#2B82B4"/><stop offset="1" stop-color="#70BB36"/></linearGradient><path class="st5" d="M648.7 607.6c-7.4 0-13.3 6-13.3 13.3v133.3c0 7.4 6 13.3 13.3 13.3s13.3-6 13.3-13.3v-133.3c0-7.4-6-13.3-13.3-13.3z"/><linearGradient id="SVGID_7_" gradientUnits="userSpaceOnUse" x1="644.056" y1="803.55" x2="651.056" y2="25.55" gradientTransform="matrix(1 0 0 -1 0 841.67)"><stop offset="0" stop-color="#2B82B4"/><stop offset="1" stop-color="#70BB36"/></linearGradient><path class="st6" d="M648.7 527.6c-7.4 0-13.3 6-13.3 13.3v26.7c0 7.4 6 13.3 13.3 13.3s13.3-6 13.3-13.3v-26.7c0-7.4-6-13.3-13.3-13.3z"/><linearGradient id="SVGID_8_" gradientUnits="userSpaceOnUse" x1="696.754" y1="804.025" x2="703.754" y2="26.025" gradientTransform="matrix(1 0 0 -1 0 841.67)"><stop offset="0" stop-color="#2B82B4"/><stop offset="1" stop-color="#70BB36"/></linearGradient><path class="st7" d="M755.3 794.2h-40v-360c0-7.4-6-13.3-13.3-13.3h-53.3c-7.4 0-13.3 6-13.3 13.3 0 7.4 6 13.3 13.3 13.3h40v360c0 7.4 6 13.3 13.3 13.3h53.3c7.4 0 13.3-6 13.3-13.3.1-7.3-5.9-13.3-13.3-13.3z"/><linearGradient id="SVGID_9_" gradientUnits="userSpaceOnUse" x1="749.45" y1="804.499" x2="756.45" y2="26.499" gradientTransform="matrix(1 0 0 -1 0 841.67)"><stop offset="0" stop-color="#2B82B4"/><stop offset="1" stop-color="#70BB36"/></linearGradient><path class="st8" d="M755.3 607.6c-7.4 0-13.3 6-13.3 13.3v133.3c0 7.4 6 13.3 13.3 13.3 7.4 0 13.3-6 13.3-13.3v-133.3c.1-7.4-5.9-13.3-13.3-13.3z"/><linearGradient id="SVGID_10_" gradientUnits="userSpaceOnUse" x1="1177.313" y1="808.348" x2="1184.313" y2="30.348" gradientTransform="matrix(1 0 0 -1 0 841.67)"><stop offset="0" stop-color="#2B82B4"/><stop offset="1" stop-color="#70BB36"/></linearGradient><path class="st9" d="M1195.3 540.9c0-7.4-6-13.3-13.3-13.3s-13.3 6-13.3 13.3v26.7c0 7.4 6 13.3 13.3 13.3s13.3-6 13.3-13.3v-26.7z"/><linearGradient id="SVGID_11_" gradientUnits="userSpaceOnUse" x1="1017.868" y1="806.914" x2="1024.868" y2="28.914" gradientTransform="matrix(1 0 0 -1 0 841.67)"><stop offset="0" stop-color="#2B82B4"/><stop offset="1" stop-color="#70BB36"/></linearGradient><path class="st10" d="M1072.1 541.3l-36.8 9.2v-116.3c0-7.4-6-13.3-13.3-13.3h-53.3c-7.4 0-13.3 6-13.3 13.3 0 7.4 6 13.3 13.3 13.3h40v120c0 4.1 1.9 8 5.1 10.5 2.4 1.9 5.3 2.8 8.2 2.8 1.1 0 2.2-.1 3.2-.4l53.3-13.3c7.1-1.8 11.5-9 9.7-16.2-1.7-7-9-11.4-16.1-9.6z"/><linearGradient id="SVGID_12_" gradientUnits="userSpaceOnUse" x1="1151.196" y1="808.113" x2="1158.196" y2="30.113" gradientTransform="matrix(1 0 0 -1 0 841.67)"><stop offset="0" stop-color="#2B82B4"/><stop offset="1" stop-color="#70BB36"/></linearGradient><path class="st11" d="M1235.3 554.2c-7.4 0-13.3 6-13.3 13.3v226.7h-80v-360c0-7.4-6-13.3-13.3-13.3h-53.3c-7.4 0-13.3 6-13.3 13.3 0 7.4 6 13.3 13.3 13.3h40v360c0 7.4 6 13.3 13.3 13.3h106.7c7.4 0 13.3-6 13.3-13.3v-240c0-7.3-6-13.3-13.4-13.3z"/><linearGradient id="SVGID_13_" gradientUnits="userSpaceOnUse" x1="1271.447" y1="809.195" x2="1278.447" y2="31.195" gradientTransform="matrix(1 0 0 -1 0 841.67)"><stop offset="0" stop-color="#2B82B4"/><stop offset="1" stop-color="#70BB36"/></linearGradient><path class="st12" d="M1368.7 474.2c-7.4 0-13.3 6-13.3 13.3v52.3l-45-36c-2.4-1.9-5.4-2.9-8.4-2.9h-53.3v-66.7c0-7.4-6-13.3-13.3-13.3h-53.4c-7.4 0-13.3 6-13.3 13.3 0 7.4 6 13.3 13.3 13.3h40v66.7c0 7.4 6 13.3 13.3 13.3h62l63 50.4c2.4 1.9 5.4 2.9 8.3 2.9 2 0 3.9-.4 5.8-1.3 4.6-2.2 7.5-6.9 7.5-12v-80c.1-7.3-5.9-13.3-13.2-13.3z"/><linearGradient id="SVGID_14_" gradientUnits="userSpaceOnUse" x1="978.301" y1="806.558" x2="985.301" y2="28.558" gradientTransform="matrix(1 0 0 -1 0 841.67)"><stop offset="0" stop-color="#2B82B4"/><stop offset="1" stop-color="#70BB36"/></linearGradient><path class="st13" d="M1328.7 20.9h-693.4c-29.4 0-53.3 23.9-53.3 53.3v733.3c0 7.4 6 13.3 13.3 13.3h53.3c7.4 0 13.3-6 13.3-13.3 0-7.4-6-13.3-13.3-13.3h-40v-720c0-14.7 12-26.7 26.7-26.7h693.3c14.7 0 26.7 12 26.7 26.7v346.7h-66.7c-7.4 0-13.3 6-13.3 13.3 0 7.4 6 13.3 13.3 13.3h80c7.4 0 13.3-6 13.3-13.3v-360c.1-29.4-23.8-53.3-53.2-53.3z"/><linearGradient id="SVGID_15_" gradientUnits="userSpaceOnUse" x1="980.809" y1="806.58" x2="987.809" y2="28.58" gradientTransform="matrix(1 0 0 -1 0 841.67)"><stop offset="0" stop-color="#2B82B4"/><stop offset="1" stop-color="#70BB36"/></linearGradient><path class="st14" d="M1022 154.2h-80c-7.4 0-13.3 6-13.3 13.3s6 13.3 13.3 13.3h80c7.4 0 13.3-6 13.3-13.3s-5.9-13.3-13.3-13.3z"/><linearGradient id="SVGID_16_" gradientUnits="userSpaceOnUse" x1="911.254" y1="805.955" x2="918.254" y2="27.955" gradientTransform="matrix(1 0 0 -1 0 841.67)"><stop offset="0" stop-color="#2B82B4"/><stop offset="1" stop-color="#70BB36"/></linearGradient><path class="st15" d="M953.1 493.5c-3.7-5.6-11-7.5-17.1-4.5l-7.4 3.7v-58.4c0-7.4-6-13.3-13.3-13.3h-53.3c-7.4 0-13.3 6-13.3 13.3 0 7.4 6 13.3 13.3 13.3h40v66.7c0 4.6 2.4 8.9 6.3 11.3 3.9 2.4 8.8 2.6 13 .6l16.1-8.1 20.1 30.2c2.6 3.9 6.8 5.9 11.1 5.9 2.5 0 5.1-.7 7.4-2.2 6.1-4.1 7.8-12.4 3.7-18.5l-26.6-40z"/><linearGradient id="SVGID_17_" gradientUnits="userSpaceOnUse" x1="900.285" y1="805.856" x2="907.285" y2="27.856" gradientTransform="matrix(1 0 0 -1 0 841.67)"><stop offset="0" stop-color="#2B82B4"/><stop offset="1" stop-color="#70BB36"/></linearGradient><path class="st16" d="M795.3 220.9c0 7.4 6 13.3 13.3 13.3h186.7c7.4 0 13.3-6 13.3-13.3s-6-13.3-13.3-13.3h-186.6c-7.4 0-13.4 5.9-13.4 13.3z"/><linearGradient id="SVGID_18_" gradientUnits="userSpaceOnUse" x1="857.339" y1="805.469" x2="864.339" y2="27.47" gradientTransform="matrix(1 0 0 -1 0 841.67)"><stop offset="0" stop-color="#2B82B4"/><stop offset="1" stop-color="#70BB36"/></linearGradient><path class="st17" d="M875.3 540.9c0-7.4-6-13.3-13.3-13.3s-13.3 6-13.3 13.3v26.7c0 7.4 6 13.3 13.3 13.3s13.3-6 13.3-13.3v-26.7z"/><linearGradient id="SVGID_19_" gradientUnits="userSpaceOnUse" x1="856.14" y1="805.459" x2="863.14" y2="27.459" gradientTransform="matrix(1 0 0 -1 0 841.67)"><stop offset="0" stop-color="#2B82B4"/><stop offset="1" stop-color="#70BB36"/></linearGradient><path class="st18" d="M862 607.6c-7.4 0-13.3 6-13.3 13.3v133.3c0 7.4 6 13.3 13.3 13.3s13.3-6 13.3-13.3v-133.3c0-7.4-5.9-13.3-13.3-13.3z"/></svg>