<svg xmlns="http://www.w3.org/2000/svg" viewBox="697 20.9 686.3 800" enable-background="new 697 20.9 686.3 800"><style type="text/css">.st0{fill:url(#XMLID_3_);} .st1{fill:url(#XMLID_4_);} .st2{fill:url(#XMLID_5_);} .st3{fill:url(#XMLID_6_);} .st4{fill:url(#XMLID_7_);}</style><linearGradient id="XMLID_3_" gradientUnits="userSpaceOnUse" x1="1087.55" y1="817.6" x2="1087.55" y2="25.6" gradientTransform="matrix(1 0 0 -1 0 841.67)"><stop offset="0" stop-color="#388AB6"/><stop offset="1" stop-color="#78BF42"/></linearGradient><path id="XMLID_32_" class="st0" d="M893.9 216.8v290.5h387.3v-290.5h-387.3zm357.4 259.9h-327.5v-229.3h327.5v229.3z"/><linearGradient id="XMLID_4_" gradientUnits="userSpaceOnUse" x1="1087.5" y1="817.6" x2="1087.5" y2="25.6" gradientTransform="matrix(1 0 0 -1 0 841.67)"><stop offset="0" stop-color="#388AB6"/><stop offset="1" stop-color="#78BF42"/></linearGradient><path id="XMLID_35_" class="st1" d="M1340.4 121.9h-505.7c-23.8 0-43 19.3-43 43v613.2c0 23.8 19.3 43 43 43h505.6c23.8 0 43-19.3 43-43v-613.2c.1-23.7-19.1-43-42.9-43zm12.1 646.8c0 11.9-9.6 21.5-21.5 21.5h-486.8c-11.9 0-21.5-9.6-21.5-21.5v-594.4c0-11.9 9.6-21.5 21.5-21.5h486.8c11.9 0 21.5 9.6 21.5 21.5v594.4z"/><linearGradient id="XMLID_5_" gradientUnits="userSpaceOnUse" x1="1009" y1="817.6" x2="1009" y2="25.6" gradientTransform="matrix(1 0 0 -1 0 841.67)"><stop offset="0" stop-color="#388AB6"/><stop offset="1" stop-color="#78BF42"/></linearGradient><path id="XMLID_38_" class="st2" d="M788.4 719.9h-36.1c-12.5 0-22.7-10.1-22.7-22.5v-621.8c0-12.4 10.2-22.5 22.7-22.5h513.4c12.5 0 22.7 10.1 22.7 22.5v43.3h32.6v-53.2c0-24.9-20.3-45-45.4-45h-533.2c-25.1 0-45.4 20.2-45.4 45v641.5c0 24.9 20.3 45 45.4 45h46.1l-.1-32.3z"/><linearGradient id="XMLID_6_" gradientUnits="userSpaceOnUse" x1="1087.55" y1="817.6" x2="1087.55" y2="25.6" gradientTransform="matrix(1 0 0 -1 0 841.67)"><stop offset="0" stop-color="#388AB6"/><stop offset="1" stop-color="#78BF42"/></linearGradient><path id="XMLID_1_" class="st3" d="M893.9 572.3h387.3v32.3h-387.3z"/><linearGradient id="XMLID_7_" gradientUnits="userSpaceOnUse" x1="1087.55" y1="817.6" x2="1087.55" y2="25.6" gradientTransform="matrix(1 0 0 -1 0 841.67)"><stop offset="0" stop-color="#388AB6"/><stop offset="1" stop-color="#78BF42"/></linearGradient><path id="XMLID_28_" class="st4" d="M893.9 644.9h387.3v32.3h-387.3z"/></svg>