<svg xmlns="http://www.w3.org/2000/svg" viewBox="102 20.9 800.2 800" enable-background="new 102 20.9 800.2 800"><linearGradient id="a" gradientUnits="userSpaceOnUse" x1="676.908" y1="41.469" x2="674.908" y2="795.469" gradientTransform="translate(0 -.22)"><stop offset="0" stop-color="#3185B2"/><stop offset="1" stop-color="#70BB36"/></linearGradient><path fill="url(#a)" d="M676.1 409.9c35.2 0 63.9-28.6 63.9-63.9s-28.6-63.9-63.9-63.9c-35.2 0-63.9 28.6-63.9 63.9s28.7 63.9 63.9 63.9zm0-102.2c21.1 0 38.3 17.2 38.3 38.3 0 21.1-17.2 38.3-38.3 38.3s-38.3-17.2-38.3-38.3 17.2-38.3 38.3-38.3z"/><linearGradient id="b" gradientUnits="userSpaceOnUse" x1="701.814" y1="41.535" x2="699.814" y2="795.535" gradientTransform="translate(0 -.22)"><stop offset="0" stop-color="#3185B2"/><stop offset="1" stop-color="#70BB36"/></linearGradient><path fill="url(#b)" d="M676.1 435.5c-17.3 0-34.5 4.3-49.7 12.4-6.2 3.3-8.5 11.1-5.2 17.3 3.3 6.2 11.1 8.5 17.3 5.2 11.5-6.2 24.5-9.4 37.6-9.4 39.7 0 72.7 29.1 78.8 67.1h-78.8c-7.1 0-12.8 5.7-12.8 12.8s5.7 12.8 12.8 12.8h92.6c7.1 0 12.8-5.7 12.8-12.8 0-58.2-47.3-105.4-105.4-105.4z"/><linearGradient id="c" gradientUnits="userSpaceOnUse" x1="304.722" y1="40.482" x2="302.722" y2="794.482" gradientTransform="translate(0 -.22)"><stop offset="0" stop-color="#3185B2"/><stop offset="1" stop-color="#70BB36"/></linearGradient><path fill="url(#c)" d="M329.2 528.1h-80c6.1-38 39.1-67.1 78.8-67.1 13.1 0 26.1 3.3 37.6 9.4 6.2 3.3 14 1 17.3-5.2s1-14-5.2-17.3c-15.2-8.1-32.4-12.4-49.7-12.4-58.1 0-105.4 47.3-105.4 105.4 0 7.1 5.7 12.8 12.8 12.8h93.7c7.1 0 12.8-5.7 12.8-12.8.1-7.1-5.6-12.8-12.7-12.8z"/><linearGradient id="d" gradientUnits="userSpaceOnUse" x1="328.911" y1="40.546" x2="326.911" y2="794.546" gradientTransform="translate(0 -.22)"><stop offset="0" stop-color="#3185B2"/><stop offset="1" stop-color="#70BB36"/></linearGradient><path fill="url(#d)" d="M328.1 409.9c35.2 0 63.9-28.6 63.9-63.9s-28.6-63.9-63.9-63.9-63.9 28.6-63.9 63.9 28.7 63.9 63.9 63.9zm0-102.2c21.1 0 38.3 17.2 38.3 38.3 0 21.1-17.2 38.3-38.3 38.3s-38.3-17.2-38.3-38.3 17.2-38.3 38.3-38.3z"/><linearGradient id="e" gradientUnits="userSpaceOnUse" x1="502.873" y1="41.007" x2="500.873" y2="795.007" gradientTransform="translate(0 -.22)"><stop offset="0" stop-color="#3185B2"/><stop offset="1" stop-color="#70BB36"/></linearGradient><path fill="url(#e)" d="M502.1 414.5c45.3 0 82.2-36.9 82.2-82.2s-36.9-82.2-82.2-82.2-82.2 36.9-82.2 82.2 36.9 82.2 82.2 82.2zm0-138.9c31.3 0 56.7 25.4 56.7 56.7s-25.4 56.7-56.7 56.7-56.7-25.4-56.7-56.7 25.4-56.7 56.7-56.7z"/><linearGradient id="f" gradientUnits="userSpaceOnUse" x1="503.527" y1="41.009" x2="501.527" y2="795.009" gradientTransform="translate(0 -.22)"><stop offset="0" stop-color="#3185B2"/><stop offset="1" stop-color="#70BB36"/></linearGradient><path fill="url(#f)" d="M502.1 440.1c-76.5 0-138.7 62.2-138.7 138.7 0 7.1 5.7 12.8 12.8 12.8h251.8c7.1 0 12.8-5.7 12.8-12.8 0-76.5-62.2-138.7-138.7-138.7zm-112.4 125.9c6.4-56.4 54.3-100.4 112.4-100.4 58.1 0 106 44 112.4 100.4h-224.8z"/><linearGradient id="g" gradientUnits="userSpaceOnUse" x1="503.108" y1="41.008" x2="501.108" y2="795.008" gradientTransform="translate(0 -.22)"><stop offset="0" stop-color="#3185B2"/><stop offset="1" stop-color="#70BB36"/></linearGradient><path fill="url(#g)" d="M889.3 408h-31c-6.6-186.4-157-336.9-343.5-343.5v-31c.1-7-5.6-12.7-12.7-12.7s-12.8 5.7-12.8 12.8v31c-186.4 6.6-336.9 157-343.5 343.5h-31c-7.1 0-12.8 5.7-12.8 12.8 0 7.1 5.7 12.8 12.8 12.8h31c6.6 186.4 157 336.9 343.5 343.5v31c0 7.1 5.7 12.8 12.8 12.8s12.8-5.7 12.8-12.8v-31c186.4-6.6 336.9-157 343.5-343.5h31c7.1 0 12.8-5.7 12.8-12.8-.1-7.2-5.8-12.9-12.9-12.9zm-374.4 343.5v-30.5c0-7.1-5.7-12.8-12.8-12.8s-12.8 5.7-12.8 12.8v30.5c-172.4-6.6-311.4-145.6-317.9-317.9h30.5c7.1 0 12.8-5.7 12.8-12.8 0-7.1-5.7-12.8-12.8-12.8h-30.5c6.6-172.4 145.6-311.3 317.9-317.9v30.5c0 7.1 5.7 12.8 12.8 12.8s12.8-5.7 12.8-12.8v-30.5c172.4 6.6 311.3 145.6 317.9 317.9h-30.5c-7.1 0-12.8 5.7-12.8 12.8 0 7.1 5.7 12.8 12.8 12.8h30.5c-6.6 172.3-145.6 311.3-317.9 317.9z"/></svg>