<?xml version="1.0" encoding="utf-8"?>
<!-- Generator: Adobe Illustrator 19.0.0, SVG Export Plug-In . SVG Version: 6.00 Build 0)  -->
<svg version="1.1" id="Layer_1" xmlns="http://www.w3.org/2000/svg" xmlns:xlink="http://www.w3.org/1999/xlink" x="0px" y="0px"
	 viewBox="-39 114.8 516.3 612.1" style="enable-background:new -39 114.8 516.3 612.1;" xml:space="preserve">
<path style="fill:#334F55;" d="M469.4,115.2c-5.3-1.5-10.9,1-13.2,6l-44,92.6c-36.9-58.1-100.4-93.3-170.4-93.3h-44.9
	c-69.4,0-134.3,36.4-171,94.4l-43.5-93.6c-2.3-5-7.9-7.6-13.2-6.1s-8.7,6.6-8.1,12.1l33.6,297v33.1c0,1.4,0.3,2.8,0.8,4.2l32.7,81.9
	L22.7,628c-0.2,3.4,1.1,6.7,3.6,9l95.4,87c2.1,1.9,4.8,2.9,7.6,2.9H309c2.8,0,5.5-1,7.6-2.9l95.4-87c2.5-2.3,3.9-5.6,3.6-9
	l-5.5-84.5l32.7-81.9c0.5-1.3,0.8-2.7,0.8-4.2v-27.6l33.6-302.6C478.1,121.8,474.7,116.7,469.4,115.2z"/>
<path style="fill:#EAE8D2;" d="M421.4,455.1l-32.9,82.2c-0.6,1.6-0.9,3.2-0.8,4.9l5.3,81.6l-88.2,80.5h-171l-88.2-80.5l5.3-81.6
	c0.1-1.7-0.2-3.3-0.8-4.9l-32.9-82.2v-9.7L117.3,517c2.9,2.1,6.7,2.6,10.1,1.5l44.5-14.8l34.5,29.5c4.2,3.6,10.4,3.6,14.6,0
	l33.6-28.8l38.2,19.1c3.6,1.8,7.9,1.5,11.3-0.7l117.3-78.2L421.4,455.1L421.4,455.1z"/>
<path style="fill:#C59A83;" d="M422.7,416.7l-125.6,83.8L258,481c-4-2-8.9-1.4-12.3,1.5l-32,27.4l-32-27.4c-2.1-1.8-4.7-2.7-7.3-2.7
	c-1.2,0-2.4,0.2-3.6,0.6l-45.1,15l-109.2-78L-8.8,193.6l23.5,50.7c1.8,3.9,5.8,6.5,10.1,6.5c4.3,0.4,8.3-2.4,10.2-6.3
	C64.8,182.8,128.4,143,196.8,143h44.9c68.9,0,130.6,38.4,161.2,100.2c1.9,3.8,5.8,6.3,10.1,6.3h0.1c4.3,0,8.2-2.5,10.1-6.4
	l24.7-51.8L422.7,416.7z"/>
<g>
	<path style="fill:#334F55;" d="M230.5,569.6h-33.7c-0.7,0-1.3,0.1-2,0.2L122,583l4,22.1l71.8-13.1h31.7l71.8,13.1l4-22.1
		l-72.8-13.2C231.9,569.7,231.2,569.6,230.5,569.6z"/>
	<rect x="185.6" y="625.7" style="fill:#334F55;" width="56.1" height="22.5"/>
	<path style="fill:#334F55;" d="M351.6,379l-101.1,22.5c-4.2,0.9-7.4,4.1-8.5,8.2c-1,4.1,0.4,8.5,3.6,11.3l39.3,33.7
		c2.1,1.8,4.7,2.7,7.3,2.7c2.7,0,5.4-1,7.6-2.9l61.8-56.1c3.8-3.4,4.8-9,2.4-13.5C361.7,380.2,356.5,377.9,351.6,379z"/>
</g>
<polygon style="fill:#E6D764;" points="292.1,431.1 277.3,418.5 315.2,410.1 "/>
<path style="fill:#334F55;" d="M176.8,401.4L75.7,378.9c-4.9-1.1-10.1,1.3-12.4,5.8c-2.3,4.5-1.4,10.1,2.4,13.5l61.8,56.1
	c2.1,1.9,4.8,2.9,7.6,2.9c2.6,0,5.2-0.9,7.3-2.7l39.3-33.7c3.2-2.8,4.6-7.1,3.6-11.3C184.2,405.5,181,402.3,176.8,401.4z"/>
<polygon style="fill:#E6D764;" points="135.3,431.1 112.2,410.1 150,418.5 "/>
</svg>
