<?xml version="1.0" encoding="utf-8"?>
<!-- Generator: Adobe Illustrator 19.0.0, SVG Export Plug-In . SVG Version: 6.00 Build 0)  -->
<svg version="1.1" id="Layer_1" xmlns="http://www.w3.org/2000/svg" xmlns:xlink="http://www.w3.org/1999/xlink" x="0px" y="0px"
	 viewBox="-55 114.7 484.8 612.2" style="enable-background:new -55 114.7 484.8 612.2;" xml:space="preserve">
<g>
	<path style="fill:#334F55;" d="M427.9,220.8c-2.4-4.9-6-8.5-10.6-10.6c8.2-10.3,14-21.7,11.4-31.9c-1.7-6.7-5.5-12-11-15.4
		c5.9-7,10.7-15.6,10.4-24.3c-0.3-8-4.7-15.1-12.5-19.8c-27.8-17.1-82.7,37.4-105.5,62.1c-27.1-21.5-60.9-34.6-96.3-34.6h-53.4
		c-35.2,0-68.7,12.9-95.7,34.1C42.1,155.7-13,100.8-40.9,118c-7.8,4.8-12.2,11.8-12.5,19.9c-0.3,8.7,4.6,17.3,10.4,24.3
		c-5.5,3.4-9.3,8.7-11,15.4c-2.5,10.2,3.3,21.6,11.4,31.9c-4.6,2.2-8.2,5.8-10.6,10.6c-10,20.1,22.7,51.6,51.9,74.6l4.2,3.3
		L-9.9,418.9c-0.2,2.3,0.5,4.6,1.7,6.6c-1,1.6-1.7,3.5-1.7,5.5v32.9c0,1.3,0.2,2.5,0.6,3.7l28.6,80.1l-4.8,82.7
		c-0.2,3.1,1,6.1,3.1,8.3l6.5,6.7c39.7,40.5,100.4,73.2,146.1,80.1c1.6,0.9,3.4,1.4,5.3,1.4h11.6c32.8,0,118.8-36.5,163-81.5
		l6.5-6.7c2.2-2.2,3.3-5.2,3.1-8.3l-4.8-82.7l28.6-80.1c0.4-1.2,0.6-2.4,0.6-3.7V431c0-2.1-0.7-3.9-1.7-5.5c1.2-2,1.9-4.2,1.7-6.6
		L371.4,299l4.5-3.5C405.3,272.4,438,240.9,427.9,220.8z"/>
</g>
<g>
	<path style="fill:#83A6E2;" d="M404.3,137.3c1,0.6,2,1.4,2,1.9c0.1,4.3-9.4,15.3-19.6,22.6c-4.3,3.1-5.8,8.8-3.5,13.6
		s7.7,7.3,12.8,5.9c2.8-0.8,7.9-1.1,10.2,0.2c0.3,0.2,0.9,0.5,1.3,2c0.4,5.5-14.2,22.5-30.2,35.1c-4.6,3.6-5.6,10.3-2.1,15.1
		s10.1,5.9,15,2.6c6.3-4.3,14.8-7.1,17.6-5.9c-1.8,7.4-19.4,26.5-39.6,43.2c-5.9-29.7-20.9-56.6-41.6-78
		C361.1,158,397.3,133.1,404.3,137.3z"/>
	<path style="fill:#83A6E2;" d="M214,168.1c67.1,0,127.4,54.2,134.5,120.9l12.8,120.1h-31.6h-21.9h-65.7h-21.9h-65.7h-22.1H66.7
		H44.8H13.2L26,289c7.1-66.6,67.4-120.9,134.5-120.9L214,168.1L214,168.1z"/>
</g>
<g>
	<path style="fill:#FFFFFF;" d="M305.7,431c-4.5,12.7-16.6,21.9-30.8,21.9s-26.3-9.2-30.8-21.9H305.7z"/>
	<path style="fill:#FFFFFF;" d="M130.4,431c-4.5,12.7-16.6,21.9-30.8,21.9c-14.3,0-26.3-9.2-30.8-21.9H130.4z"/>
</g>
<path style="fill:#83A6E2;" d="M-33.1,229.2c1.7-1.1,10.5,1.3,17.7,6.2c4.9,3.3,11.5,2.2,15-2.6s2.6-11.4-2.1-15.1
	c-16-12.5-30.7-29.6-30.2-34.9c0.4-1.6,1-1.9,1.3-2.1c2.3-1.3,7.4-0.9,10.1-0.2c5.2,1.5,10.6-1,12.9-5.8s0.8-10.6-3.6-13.7
	c-9.2-6.5-19.7-17.7-19.6-22.5c0-0.5,1.1-1.3,2-1.9c7-4.4,43.3,20.7,77.9,58.3c-20.8,21.3-36,48.1-42.1,77.7
	C-14.1,255.6-31.8,236.3-33.1,229.2z"/>
<path style="fill:#EAE8D2;" d="M362.5,461.9l-28.8,80.4c-0.5,1.4-0.7,2.9-0.6,4.3l4.6,80l-3.1,3.2c-41.7,42.5-122.7,74.9-147.3,74.9
	c-40,0-107.5-34.3-147.3-74.9l-3.1-3.2l4.6-80c0.1-1.5-0.1-2.9-0.6-4.3l-28.8-80.4v-31h34c5.1,25,27.2,43.8,53.7,43.8
	s48.6-18.8,53.7-43.8h67.9c5.1,25,27.2,43.8,53.7,43.8c26.4,0,48.6-18.8,53.7-43.8h34L362.5,461.9L362.5,461.9z"/>
<path style="fill:#334F55;" d="M176.2,518.6h32.9v-21.9h-21.9v-32.9h-21.9v43.8C165.3,513.7,170.2,518.6,176.2,518.6z"/>
<g>
	<rect x="132.4" y="584.3" style="fill:#334F55;" width="109.5" height="21.9"/>
	<path style="fill:#334F55;" d="M144.2,313.5l-6.4,37.3c-0.7,4.1,1,8.3,4.4,10.7c3.4,2.4,7.8,2.8,11.5,0.8l33.5-17.6l33.5,17.6
		c1.6,0.8,3.4,1.3,5.1,1.3c2.3,0,4.5-0.7,6.4-2.1c3.4-2.4,5.1-6.6,4.4-10.7l-6.4-37.3l27.1-26.4c3-2.9,4.1-7.3,2.8-11.2
		c-1.3-4-4.7-6.9-8.8-7.5l-37.5-5.4L197,229c-3.7-7.5-16-7.5-19.6,0l-16.8,34l-37.5,5.4c-4.1,0.6-7.6,3.5-8.8,7.5
		c-1.3,4-0.2,8.3,2.8,11.2L144.2,313.5z"/>
</g>
<path style="fill:#E6D764;" d="M169.5,283.8c3.6-0.5,6.7-2.8,8.3-6l9.5-19.2l9.5,19.2c1.6,3.2,4.7,5.5,8.3,6l21.2,3.1l-15.4,15
	c-2.6,2.5-3.8,6.1-3.2,9.7l3.6,21.1l-19-10c-1.6-0.8-3.3-1.3-5.1-1.3s-3.5,0.4-5.1,1.3l-19,10l3.6-21.1c0.6-3.6-0.6-7.2-3.2-9.7
	l-15.4-15L169.5,283.8z"/>
</svg>
