<?xml version="1.0" encoding="utf-8"?>
<!-- Generator: Adobe Illustrator 19.0.0, SVG Export Plug-In . SVG Version: 6.00 Build 0)  -->
<svg version="1.1" id="Layer_1" xmlns="http://www.w3.org/2000/svg" xmlns:xlink="http://www.w3.org/1999/xlink" x="0px" y="0px"
	 viewBox="-30 140.9 533.2 560" style="enable-background:new -30 140.9 533.2 560;" xml:space="preserve">
<path style="fill:#334F55;" d="M501.3,268.8c-3.3-6.6-8.7-11.1-15.6-12.9c10.8-12.6,19.5-27.2,16.4-39.5
	c-1.9-7.6-6.2-13.5-12.6-17.1c-0.9-0.5-1.9-1-2.9-1.5c7.9-8.6,15-19.5,14.7-30.5c-0.2-6.1-2.7-14.7-13.5-21.4
	c-32.5-20-102.5,51.6-124,75c-22.2-13.8-47.9-21.9-74.4-21.9h-19.8v-9.9c0-16.4-13.4-29.7-29.8-29.7H230
	c-16.4,0-29.8,13.3-29.8,29.7v9.9h-9.9c-27.8,0-54.6,9-77.5,24l-2.8-3c-20.9-22.8-91.8-95.7-124.6-75.6
	c-10.8,6.7-13.3,15.3-13.5,21.4c-0.4,11,6.8,21.9,14.7,30.5c-1,0.4-2,0.9-2.9,1.5c-6.3,3.6-10.7,9.6-12.6,17.1
	c-3.1,12.3,5.6,26.9,16.4,39.5c-6.9,1.8-12.3,6.3-15.6,12.9c-11.8,23.5,33.9,64.3,62.2,86.5l7.8,6.1l0.7-0.9l-10.8,86.4
	c-0.4,2.8,0.5,5.7,2.4,7.8c1.9,2.1,4.6,3.4,7.4,3.4v29.7c0,1.3,0.2,2.5,0.7,3.7l28.9,72.2l-4.8,74.6c-0.2,3,1,5.9,3.2,8l11,10
	c31.9,29,78.7,46,120.2,46c13.8,0,27.1-1.9,39-5.8c41,13,115.9-0.8,159.1-40.2l11-10c2.2-2,3.4-5,3.2-8l-4.8-74.6l28.9-72.2
	c0.5-1.2,0.7-2.4,0.7-3.7v-29.7c2.8,0,5.5-1.2,7.4-3.4c1.9-2.1,2.8-5,2.4-7.8l-11-88.2l2.4-1.9C467.4,333.1,513.1,292.3,501.3,268.8
	z"/>
<path style="fill:#EAE8D2;" d="M418.2,484.4l-29,72.5c-0.5,1.4-0.8,2.8-0.7,4.3l4.7,72.1l-7.5,6.8c-38.1,34.7-109,47.6-142.3,35.1
	c-2.2-0.8-4.7-0.8-7,0c-40.6,15.2-104.4-0.5-142.3-35.1l-7.5-6.8l4.7-72.1c0.1-1.5-0.1-2.9-0.7-4.3l-29-72.5v-27.8h51
	c4.4,17,19.8,29.7,38.2,29.7s33.8-12.7,38.2-29.7h92c4.4,17,19.8,29.7,38.2,29.7s33.8-12.7,38.2-29.7h60.9L418.2,484.4L418.2,484.4z
	"/>
<g>
	<path style="fill:#E6D764;" d="M220,189c0-5.5,4.5-9.9,10-9.9h9.8c5.6,0,10,4.4,10,9.9v9.9h-29.7L220,189L220,189z"/>
	<path style="fill:#E6D764;" d="M210,218.7h49.6h29.7c60.7,0,116.3,49.1,123.8,109.4l13.6,108.7h-68.1h-19.8h-39.6h-19.8h-89.2
		h-19.8h-39.6H111H52.9l13.6-108.7c7.5-60.3,63.1-109.4,123.8-109.4L210,218.7L210,218.7z"/>
</g>
<g>
	<path style="fill:#EAE8D2;" d="M336.1,456.5c-3.4,5.9-9.8,9.9-17.1,9.9s-13.6-4-17.1-9.9H336.1L336.1,456.5z"/>
	<path style="fill:#EAE8D2;" d="M167.7,456.5c-3.4,5.9-9.8,9.9-17.1,9.9s-13.6-4-17.1-9.9H167.7L167.7,456.5z"/>
</g>
<g>
	<path style="fill:#E6D764;" d="M-10.4,276.1c0.9-1.8,1.8-2.3,3-2.6c5.9-1.5,17.9,3.9,24.1,8.1c4.4,3,10.4,1.9,13.6-2.4
		c3.1-4.3,2.3-10.3-1.9-13.6c-21.7-17-39.8-38.9-38-46c0.7-3,2.1-4.1,3.2-4.7c4.5-2.6,12.6-1.2,15-0.6c4.7,1.3,9.6-0.9,11.7-5.2
		c2.1-4.4,0.7-9.6-3.2-12.4c-10.8-7.6-25.5-22.4-25.3-30.3c0-0.8,0.1-2.6,4.1-5.1c12.6-7.7,62.6,31.8,99.6,72.1l1.4,1.6
		c-26.8,23-45.7,55.2-50.1,90.8l-1.5,11.7C14.6,313-11.8,283.9-10.4,276.1z"/>
	<path style="fill:#E6D764;" d="M432.8,325.6c-4.6-36.8-24.7-69.9-52.9-93c36.8-39.5,85.1-77.4,97.5-69.8c4,2.5,4.1,4.3,4.1,5.1
		c0.3,7.9-14.5,22.7-25.3,30.4c-3.9,2.8-5.3,8-3.2,12.4s7,6.6,11.7,5.2c2.9-0.8,10.7-1.9,14.9,0.6c1.1,0.6,2.5,1.8,3.2,4.8
		c1.8,7.1-16.4,29-38,46c-4.2,3.3-5,9.3-1.9,13.6c3.2,4.3,9.1,5.4,13.6,2.4c6.2-4.2,18.2-9.7,24.1-8.1c1.1,0.3,2.1,0.9,2.9,2.4
		c1.4,7.5-21.6,33.5-49.6,56.7L432.8,325.6z"/>
</g>
<g>
	<path style="fill:#334F55;" d="M229.9,535.8h29.7V516h-19.8v-29.7H220v39.6C220,531.4,224.4,535.8,229.9,535.8z"/>
	<path style="fill:#334F55;" d="M246.7,579.4l-6.9,9.3l-6.9-9.3c-1.9-2.5-4.8-4-7.9-4h-64.4v19.8h59.5l11.9,15.9
		c1.9,2.5,4.8,4,7.9,4c3.1,0,6.1-1.5,7.9-4l11.9-15.9h59.5v-19.8h-64.6C251.5,575.4,248.6,576.9,246.7,579.4z"/>
	<rect x="81.2" y="387.2" style="fill:#334F55;" width="317.1" height="19.8"/>
</g>
</svg>
