<?xml version="1.0" encoding="utf-8"?>
<!-- Generator: Adobe Illustrator 19.0.0, SVG Export Plug-In . SVG Version: 6.00 Build 0)  -->
<svg version="1.1" id="Layer_1" xmlns="http://www.w3.org/2000/svg" xmlns:xlink="http://www.w3.org/1999/xlink" x="0px" y="0px"
	 viewBox="-59 114.9 476 612" style="enable-background:new -59 114.9 476 612;" xml:space="preserve">
<path style="fill:#334F55;" d="M235.6,114.9H122.4C22.4,114.9-59,196.2-59,296.2v170c0,6.3,5.1,11.3,11.3,11.3h34v113.4
	c0,75,61,136,135.9,136h113.6c74.9,0,135.9-61,135.9-136V477.6h34c6.3,0,11.3-5.1,11.3-11.3v-170C417,196.2,335.6,114.9,235.6,114.9
	z"/>
<g>
	<path style="fill:#83A6E2;" d="M122.4,137.6h113.1c71.8,0,132.5,47.9,152.1,113.3H-29.6C-10.1,185.4,50.7,137.6,122.4,137.6z"/>
	<path style="fill:#83A6E2;" d="M392.5,273.6c0.5,3.7,1,7.5,1.2,11.3H-35.8c0.3-3.8,0.7-7.6,1.2-11.3H392.5z"/>
	<path style="fill:#83A6E2;" d="M349,590.9c0,62.5-50.8,113.3-113.2,113.3H122.2C59.8,704.2,9,653.4,9,590.9V477.6h0.6L17,603.1
		c2.2,37,34.2,67.2,71.3,67.2H145c6.3,0,11.3-5.1,11.3-11.3v-34H213v34c0,6.3,5.1,11.3,11.3,11.3h45.4c37.1,0,69.1-30.1,71.3-67.2
		l7.4-125.5h0.6V590.9L349,590.9z"/>
</g>
<path style="fill:#EAE8D2;" d="M190.3,500.2v-22.7h135.3l-7.3,124.2c-1.5,25.3-23.3,45.8-48.7,45.8h-34v-34
	c0-6.3-5.1-11.3-11.3-11.3H145c-6.3,0-11.3,5.1-11.3,11.3v34H88.3c-25.3,0-47.2-20.6-48.7-45.8l-7.3-124.2h135.3v22.7H190.3z"/>
<polygon style="fill:#83A6E2;" points="394.3,454.9 360.3,454.9 337.7,454.9 190.3,454.9 167.7,454.9 20.3,454.9 -2.3,454.9 
	-36.3,454.9 -36.3,307.6 394.3,307.6 "/>
<path style="fill:#334F55;" d="M42.9,432.2h272.2c18.7,0,33.9-15.3,33.9-34s-15.2-34-33.9-34H42.9c-18.7,0-33.9,15.3-33.9,34
	S24.2,432.2,42.9,432.2z"/>
<path style="fill:#C5D35E;" d="M42.9,386.9h272.2c6.3,0,11.2,5,11.2,11.3c0,6.2-5,11.3-11.2,11.3H42.9c-6.3,0-11.2-5-11.2-11.3
	C31.7,392,36.7,386.9,42.9,386.9z"/>
<g>
	<rect x="111" y="534.2" style="fill:#334F55;" width="136" height="22.7"/>
	<rect x="156.3" y="568.2" style="fill:#334F55;" width="56.7" height="22.7"/>
</g>
</svg>
