<?xml version="1.0" encoding="utf-8"?>
<!-- Generator: Adobe Illustrator 19.0.0, SVG Export Plug-In . SVG Version: 6.00 Build 0)  -->
<svg version="1.1" id="Layer_1" xmlns="http://www.w3.org/2000/svg" xmlns:xlink="http://www.w3.org/1999/xlink" x="0px" y="0px"
	 viewBox="-89 140.9 415.3 560" style="enable-background:new -89 140.9 415.3 560;" xml:space="preserve">
<path style="fill:#334F55;" d="M326.3,209c0.2-3.5-1.5-6.8-4.5-8.7l-91.7-57.9c-1.5-1-3.3-1.5-5.2-1.5H17.3c-1.7,0-3.5,0.5-5,1.4
	l-96.6,57.9c-3.1,1.8-4.9,5.2-4.7,8.8l9.7,183.4c0.3,5.1,4.5,9.1,9.6,9.1v67.6c0,1.2,0.2,2.4,0.7,3.6l28.2,70.4l-4.7,72.7
	c-0.2,2.9,1,5.8,3.1,7.8l82.1,74.8c1.8,1.6,4.1,2.5,6.5,2.5h154.5c2.4,0,4.7-0.9,6.5-2.5l82.1-74.8c2.2-2,3.3-4.8,3.1-7.8l-4.7-72.7
	l28.2-70.4c0.5-1.1,0.7-2.4,0.7-3.6v-77L326.3,209z"/>
<path style="fill:#C59A83;" d="M20,160.2h202.1l84.6,53.4l-8.9,168.6H278V256.8c0-3.2-1.6-6.2-4.3-8l-72-48.3
	c-1.6-1.1-3.5-1.6-5.4-1.6H46.6c-1.8,0-3.6,0.5-5.1,1.5l-77.6,48.3c-2.8,1.8-4.6,4.9-4.6,8.2v125.5H-60h-0.5l-8.8-168.6L20,160.2z"
	/>
<polygon style="fill:#83A6E2;" points="87,459.5 -22.4,459.5 -29.7,401.6 101.5,401.6 "/>
<path style="fill:#EAE8D2;" d="M148.2,284.7c1.4,0.7,2.9,1,4.3,1c3.5,0,7-2,8.6-5.3l29-57.9c0.7-1.4,0.9-2.9,0.9-4.3h2.3l15.7,10.5
	L162.9,330c-2.2,4.9-0.1,10.6,4.8,12.8c1.3,0.6,2.7,0.9,4,0.9c3.7,0,7.2-2.1,8.8-5.7l44.7-98.4l33.5,22.3v120.4H123.5h-9.7H-21.3
	V262.1l70.7-44h121.3l-26.8,53.6C141.5,276.5,143.4,282.3,148.2,284.7z"/>
<circle style="fill:#D45D57;" cx="200.8" cy="411.2" r="9.7"/>
<path style="fill:#83A6E2;" d="M173.6,401.6c-1.1,3-1.8,6.3-1.8,9.7c0,16,13,29,29,29s29-13,29-29c0-3.4-0.7-6.6-1.8-9.7h39.1
	l-7.2,57.9H150.4l-14.5-57.9H173.6z"/>
<path style="fill:#EAE8D2;" d="M297.3,467.3L269,538c-0.5,1.3-0.8,2.8-0.7,4.2l4.5,70.2l-75.9,69.2h-147L-26,612.4l4.5-70.2
	c0.1-1.4-0.1-2.9-0.7-4.2l-28.1-70.7v-65.7h1.1l8.6,68.8c0.6,4.8,4.7,8.5,9.6,8.5H79.7L69,503h-1.5v3.4l-1,2.3
	c-1.3,3-1.1,6.4,0.7,9.2c0.1,0.2,0.2,0.3,0.3,0.4v4h65.7V503H90.1l17.2-38.7l-1.4-0.6l12.8-51.2l14.8,59.1c1.1,4.3,4.9,7.3,9.4,7.3
	h125.5c4.9,0,9-3.6,9.6-8.5l8.6-68.8h10.8L297.3,467.3L297.3,467.3z"/>
<g>
	<path style="fill:#334F55;" d="M125.5,550.3l-6.8,9l-6.8-9c-2.2-2.9-5.8-4.4-9.4-3.7L39.9,558l3.5,19l56.7-10.3l10.9,14.5
		c1.8,2.4,4.7,3.9,7.7,3.9s5.9-1.4,7.7-3.9l10.9-14.5L194,577l3.5-19l-62.6-11.4C131.3,545.9,127.7,547.4,125.5,550.3z"/>
	<rect x="94.6" y="604.3" style="fill:#334F55;" width="48.3" height="19.3"/>
</g>
</svg>
