<svg xmlns="http://www.w3.org/2000/svg" width="1488" height="83" viewBox="0 0 1488 83">
  <polygon fill="#232721" fill-rule="evenodd" points="0 83 0 38.989 78 18 114 26 131 26 136 30 141 29 146 31 158 31 163 36 172 35 178 36 182 40 191 41 207 54 229 68 258 68 289 68 301 69 308 68 314 69 331 64 350 64 352 63 366 62 384 66 387 70 394 69 397 71 468 36 474 36 500 25 510 25 520 32 532 36 542 36 568 56 584 57 587 59 596 52 601 52 604 49 609 51 614 46 620 46 623 47 630 41 637 39 648 43 656 41 661 43 666 42 673 47 677 48 683 54 691 54 695 52 701 54 721 51 741 52 751 52 757 48 775 47 796 37 803 36 809 32 810 29 813 27 819 23 824 24 831 19 836 19 863 38 872 37 883 38 897 44 931 45 946 41 961 39 978 38 1013 23 1020 22 1034 27 1047 32 1060 40 1106 17 1115 17 1158 0 1163 0 1181 10 1205 25 1227 39 1272 68 1283 71 1303 73 1309 77 1322 77 1339 77 1372 71 1399 60 1419 49 1444 38 1462 36 1478 35 1488 41 1488 83"/>
</svg>
