<svg xmlns="http://www.w3.org/2000/svg" width="28" height="28" viewBox="0 0 28 28">
  <path fill="#FF0000" fill-rule="evenodd" d="M2.402,20.838 C1.165,18.772 0.454,16.356 0.454,13.773 C0.454,6.166 6.62,0 14.227,0 C21.834,0 28,6.166 28,13.773 C28,21.38 21.834,27.546 14.227,27.546 C11.859,27.546 9.631,26.948 7.685,25.896 L8.8817842e-16,27.849 L2.402,20.838 L2.402,20.838 Z M10.292,5.449 C8.93,4.163 7.795,5.449 7.795,5.449 C7.795,5.449 3.784,8.552 6.963,12.638 C9.006,15.438 14.379,20.433 14.379,20.433 C17.86,23.309 20.13,22.022 20.13,22.022 C21.492,21.417 22.552,20.206 22.552,20.206 C22.552,20.206 24.066,19.071 22.249,17.406 C22.249,17.406 21.417,16.574 20.281,15.892 C18.767,15.211 18.313,16.346 18.313,16.346 C16.345,18.465 15.286,16.876 15.286,16.876 C15.286,16.876 13.394,15.135 11.2,12.865 C9.914,11.654 11.049,10.292 11.049,10.292 L11.957,9.535 C12.865,8.703 12.108,7.794 12.108,7.794 C12.108,7.794 11.427,6.508 10.292,5.448 L10.292,5.449 Z"/>
</svg>
